<?xml version="1.0" encoding="UTF-8"?>
<svg xmlns="http://www.w3.org/2000/svg" viewBox="0 0 842 929" role="img" aria-label="Outbound OS">
  <path d="M 415 3.611 C 412.525 5.033, 407.125 8.035, 403 10.281 C 398.875 12.527, 393.250 15.643, 390.500 17.206 C 387.750 18.768, 384.150 20.727, 382.500 21.558 C 380.850 22.388, 377.250 24.420, 374.500 26.073 C 371.750 27.725, 367.700 29.963, 365.500 31.046 C 363.300 32.129, 359.700 34.047, 357.500 35.308 C 355.300 36.570, 349.900 39.560, 345.500 41.954 C 341.100 44.347, 334.125 48.198, 330 50.512 C 322.421 54.764, 313.475 59.636, 302.500 65.491 C 295.079 69.449, 286.653 74.095, 277.500 79.277 C 273.650 81.456, 268.025 84.583, 265 86.226 C 261.975 87.869, 258.938 89.670, 258.250 90.229 C 256.670 91.513, 256.390 342.505, 257.968 343.480 C 258.936 344.078, 262.558 342.506, 271 337.822 C 273.475 336.448, 278.875 333.489, 283 331.246 C 287.125 329.003, 295.675 324.268, 302 320.725 L 313.500 314.282 313.755 219.987 C 314.030 118.216, 313.695 123.987, 319.500 121.304 C 322.179 120.065, 327.701 117.024, 335 112.767 C 336.375 111.965, 340.875 109.507, 345 107.303 C 349.125 105.100, 361.050 98.558, 371.500 92.766 C 422.668 64.402, 420.108 65.655, 423.702 67.208 C 425.241 67.873, 432.010 71.474, 438.745 75.209 C 445.480 78.944, 451.294 82, 451.666 82 C 452.038 82, 453.053 82.619, 453.921 83.374 C 454.790 84.130, 459.689 86.943, 464.809 89.624 C 480.305 97.741, 496.976 106.883, 498.644 108.180 C 499.273 108.669, 502.423 110.408, 505.644 112.045 C 515.027 116.813, 524.807 122.407, 526.207 123.807 C 527.205 124.805, 527.550 132.890, 527.720 159.250 C 527.841 178.032, 528.163 193.982, 528.436 194.694 C 529.112 196.455, 529.926 196.060, 559 179.849 L 583.500 166.188 583.762 128.200 L 584.024 90.211 580.262 87.895 C 578.193 86.621, 575.375 85.004, 574 84.301 C 566.234 80.334, 553.910 73.310, 552.841 72.241 C 552.159 71.559, 551.205 71, 550.723 71 C 550.241 71, 545.268 68.460, 539.673 65.356 C 534.078 62.252, 526.125 57.901, 522 55.688 C 517.875 53.474, 513.150 50.840, 511.500 49.835 C 509.850 48.829, 506.700 47.101, 504.500 45.996 C 502.300 44.890, 498.700 42.946, 496.500 41.675 C 494.300 40.404, 488.450 37.190, 483.500 34.532 C 478.550 31.874, 471.028 27.743, 466.785 25.350 C 462.541 22.958, 458.674 21, 458.190 21 C 457.706 21, 456.495 20.100, 455.500 19 C 454.505 17.900, 453.076 17, 452.325 17 C 451.574 17, 449.282 15.961, 447.230 14.692 C 445.179 13.422, 441.925 11.609, 440 10.662 C 438.075 9.716, 433.350 7.181, 429.500 5.030 C 421.126 0.351, 420.738 0.313, 415 3.611 M 158.466 143.559 C 152.985 146.615, 147.825 149.529, 147 150.035 C 146.175 150.540, 143.475 152.010, 141 153.301 C 135.742 156.044, 128.158 160.161, 122.500 163.344 C 116.182 166.899, 106.984 171.988, 101 175.239 C 97.975 176.883, 93.700 179.245, 91.500 180.489 C 89.300 181.733, 84.575 184.326, 81 186.252 C 77.425 188.178, 71.125 191.651, 67 193.969 C 62.875 196.288, 58.600 198.601, 57.500 199.109 C 56.400 199.618, 53.700 201.059, 51.500 202.313 C 49.300 203.567, 44.350 206.317, 40.500 208.424 C 15.937 221.867, 3.045 229.241, 2.088 230.393 C 1.303 231.339, 1.063 259.024, 1.245 327.434 L 1.500 423.152 6.500 426.042 C 9.250 427.632, 13.075 429.772, 15 430.798 C 16.925 431.824, 21.200 434.165, 24.500 436 C 27.800 437.835, 32.075 440.167, 34 441.183 C 35.925 442.198, 38.175 443.449, 39 443.963 C 39.825 444.476, 45.450 447.638, 51.500 450.990 C 57.550 454.341, 63.175 457.483, 64 457.971 C 69.535 461.249, 78.601 466.327, 85 469.733 C 92.550 473.751, 99.952 477.847, 105.500 481.079 C 107.150 482.040, 112.550 484.947, 117.500 487.539 C 122.450 490.130, 127.210 492.870, 128.079 493.626 C 128.947 494.381, 129.946 495, 130.299 495 C 130.651 495, 135.952 497.813, 142.078 501.250 C 148.204 504.688, 156.205 509.111, 159.858 511.080 C 174.850 519.160, 190.284 527.637, 194.500 530.107 C 196.865 531.492, 222.936 546.288, 234.329 552.711 C 235.511 553.377, 236.827 553.573, 237.253 553.147 C 237.680 552.720, 237.910 538.247, 237.765 520.983 L 237.500 489.596 233.500 486.800 C 231.300 485.262, 227.700 483.118, 225.500 482.037 C 220.497 479.578, 209.320 473.359, 206 471.189 C 204.625 470.290, 201.475 468.539, 199 467.298 C 196.525 466.057, 193.825 464.606, 193 464.072 C 190.215 462.271, 156.944 444, 156.450 444 C 156.181 444, 154.213 442.897, 152.078 441.549 C 149.943 440.202, 145.115 437.483, 141.348 435.509 C 133.385 431.335, 123.989 426.175, 119 423.236 C 117.075 422.102, 111.450 419.053, 106.500 416.461 C 101.550 413.870, 96.790 411.130, 95.921 410.374 C 95.053 409.619, 93.990 409, 93.560 409 C 93.130 409, 86.190 405.317, 78.139 400.815 C 70.087 396.313, 62.263 392.005, 60.750 391.242 L 58 389.854 58 327.042 L 58 264.230 60.750 262.415 C 63.722 260.453, 68.294 257.926, 79.990 251.782 C 84.110 249.617, 87.935 247.488, 88.490 247.049 C 89.046 246.611, 93.205 244.283, 97.734 241.876 C 107.476 236.699, 113.349 233.534, 121.500 229.068 C 124.800 227.260, 132.450 223.096, 138.500 219.815 C 144.550 216.535, 150.175 213.445, 151 212.950 C 151.825 212.454, 156.201 209.983, 160.724 207.458 L 168.948 202.866 177.724 207.586 C 182.551 210.182, 189.425 213.852, 193 215.742 C 196.575 217.632, 199.950 219.527, 200.500 219.952 C 201.050 220.378, 204.875 222.534, 209 224.743 C 227.795 234.807, 230.592 236.365, 232 237.554 C 232.825 238.250, 234.400 238.973, 235.500 239.160 C 237.453 239.492, 237.507 238.865, 237.800 212.500 C 238.202 176.338, 238.167 176.093, 232.055 172.133 C 229.396 170.410, 226.943 169, 226.605 169 C 226.039 169, 191.440 150.194, 188 148.017 C 187.175 147.495, 183.800 145.657, 180.500 143.933 C 177.200 142.210, 174.050 140.449, 173.500 140.022 C 170.427 137.634, 168.122 138.176, 158.466 143.559 M 664.500 142.599 C 660.100 145.121, 651.325 149.908, 645 153.238 C 638.675 156.568, 631.933 160.351, 630.018 161.646 C 628.103 162.941, 626.192 164, 625.771 164 C 625.161 164, 602.305 176.282, 596 179.998 C 594.228 181.042, 554.301 203.386, 548.500 206.580 C 546.300 207.792, 536.625 213.114, 527 218.408 C 517.375 223.701, 508.825 228.457, 508 228.975 C 507.175 229.493, 504.250 231.094, 501.500 232.532 C 498.750 233.970, 494.700 236.212, 492.500 237.514 C 490.300 238.816, 486.025 241.198, 483 242.808 C 479.975 244.417, 475.700 246.757, 473.500 248.007 C 471.300 249.257, 466.125 252.089, 462 254.301 C 457.875 256.513, 452.821 259.375, 450.770 260.661 C 448.718 261.948, 446.651 263, 446.175 263 C 445.699 263, 444.525 263.868, 443.565 264.928 C 441.885 266.785, 441.944 266.919, 445.160 268.579 C 453.558 272.912, 475.256 285.025, 476.675 286.171 C 477.321 286.693, 481.921 289.140, 486.896 291.609 C 491.871 294.077, 496.207 296.525, 496.530 297.048 C 497.977 299.390, 503.283 297.223, 523.688 285.953 C 535.684 279.327, 546.175 273.501, 547 273.006 C 548.769 271.945, 562.642 264.175, 587.313 250.427 C 597.111 244.967, 606.786 239.511, 608.813 238.301 C 610.841 237.092, 613.400 235.673, 614.500 235.149 C 615.600 234.624, 625.902 228.976, 637.393 222.597 C 648.884 216.219, 658.392 211, 658.522 211 C 658.652 211, 661.373 209.425, 664.570 207.500 C 672.195 202.908, 673.393 203.025, 685.088 209.500 C 690.551 212.525, 695.206 215, 695.432 215 C 695.658 215, 699.590 217.145, 704.171 219.766 C 708.752 222.387, 713.625 225.083, 715 225.757 C 721.510 228.948, 734.668 236.337, 736.079 237.594 C 736.947 238.367, 737.991 239, 738.399 239 C 738.807 239, 743.947 241.650, 749.820 244.890 C 755.694 248.129, 763.650 252.482, 767.500 254.563 C 778.262 260.381, 778.323 260.416, 781.257 262.387 L 784.015 264.240 783.757 326.822 L 783.500 389.404 779.500 392.144 C 777.300 393.651, 773.025 396.135, 770 397.664 C 766.975 399.193, 761.148 402.414, 757.052 404.822 C 752.956 407.230, 748.681 409.603, 747.552 410.096 C 744.213 411.554, 728.571 420.105, 727.673 420.963 C 726.482 422.102, 730.225 424.514, 751 435.999 C 779.729 451.882, 780.397 452.254, 782.174 453.352 C 783.854 454.390, 787.055 453.003, 800 445.622 C 802.475 444.211, 806.750 441.826, 809.500 440.320 C 812.250 438.815, 816.300 436.568, 818.500 435.327 C 820.700 434.086, 823.914 432.393, 825.643 431.566 C 827.372 430.739, 831.537 428.451, 834.898 426.480 L 841.010 422.898 840.755 326.266 L 840.500 229.634 836.774 227.567 C 818.009 217.158, 815.050 215.539, 805.520 210.470 C 800.581 207.843, 793.231 203.738, 789.187 201.347 C 785.143 198.956, 781.664 197, 781.455 197 C 781.246 197, 775.546 193.921, 768.788 190.157 C 755.701 182.869, 748.333 178.853, 735.500 172.013 C 731.100 169.667, 726.919 167.285, 726.209 166.718 C 725.499 166.151, 722.799 164.633, 720.209 163.344 C 717.619 162.055, 713.700 159.970, 711.500 158.709 C 700.879 152.624, 673.739 138.044, 673 138.027 C 672.725 138.020, 668.900 140.078, 664.500 142.599 M 334.562 229.772 C 334.253 230.081, 334 244.403, 334 261.599 L 334 292.864 336.942 294.959 C 338.560 296.111, 341.373 297.756, 343.192 298.614 C 346.548 300.196, 348.922 301.493, 357 306.158 C 361.982 309.035, 369.644 313.237, 381 319.319 C 385.125 321.528, 398.175 328.716, 410 335.291 C 421.825 341.866, 435.775 349.514, 441 352.287 C 446.225 355.060, 454.678 359.730, 459.785 362.665 C 464.892 365.599, 469.283 368, 469.542 368 C 469.949 368, 484.280 376.048, 495 382.297 C 500.293 385.383, 505.778 388, 506.952 388 C 507.660 388, 508 377.848, 508 356.655 C 508 328.038, 507.848 325.180, 506.250 323.816 C 504.701 322.494, 485.516 311.716, 467 301.765 C 463.425 299.844, 458.700 297.245, 456.500 295.990 C 454.300 294.736, 450.475 292.620, 448 291.289 C 445.525 289.958, 441.250 287.560, 438.500 285.960 C 435.750 284.360, 431.700 282.136, 429.500 281.018 C 427.300 279.900, 423.250 277.730, 420.500 276.195 C 417.750 274.661, 411.900 271.474, 407.500 269.113 C 403.100 266.752, 398.071 263.988, 396.323 262.972 C 391.010 259.879, 380.888 254.295, 373.500 250.380 C 366.508 246.676, 365.023 245.864, 357.500 241.637 C 340.939 232.332, 335.048 229.285, 334.562 229.772 M 579.262 276.058 C 577.481 276.980, 575.456 278.186, 574.762 278.737 C 574.068 279.287, 569.675 281.761, 565 284.235 C 551.456 291.400, 542.768 296.175, 539 298.525 C 537.075 299.726, 534.547 301.010, 533.382 301.379 C 527.391 303.279, 527.768 296.095, 527.844 406.979 C 527.882 462.568, 528.178 508.478, 528.500 509.001 C 528.985 509.785, 542.038 503.654, 545.500 501.015 C 546.050 500.596, 549.425 498.682, 553 496.762 C 556.575 494.842, 562.200 491.780, 565.500 489.956 C 568.800 488.132, 572.874 485.915, 574.554 485.028 C 576.233 484.141, 579.046 482.392, 580.804 481.140 L 584 478.864 584 376.991 C 584 320.961, 583.663 274.952, 583.250 274.749 C 582.837 274.546, 581.043 275.135, 579.262 276.058 M 337.500 322.021 C 335.850 323.052, 331.350 325.543, 327.500 327.556 C 323.650 329.570, 320.050 331.559, 319.500 331.975 C 318.271 332.906, 309.581 337.781, 305.500 339.829 C 303.850 340.657, 292.946 346.667, 281.268 353.185 C 269.591 359.703, 259.016 365.481, 257.768 366.026 C 256.521 366.571, 253.250 368.324, 250.500 369.924 C 247.750 371.523, 241.900 374.724, 237.500 377.037 C 233.100 379.351, 228.790 381.864, 227.921 382.622 C 227.053 383.380, 226.006 384, 225.594 384 C 224.934 384, 181.836 407.551, 178 410.008 C 176.366 411.055, 166.765 416.150, 160.685 419.197 C 158.587 420.249, 157.026 421.577, 157.216 422.148 C 157.540 423.119, 162.875 426.467, 171 430.798 C 172.925 431.824, 177.200 434.165, 180.500 436 C 183.800 437.835, 188.075 440.173, 190 441.196 C 191.925 442.218, 195.300 444.153, 197.500 445.495 C 199.700 446.837, 203.525 448.919, 206 450.122 C 208.475 451.324, 211.192 452.898, 212.039 453.618 C 213.336 454.722, 214.695 454.345, 220.692 451.214 C 234.586 443.960, 240.557 440.750, 245 438.146 C 250.431 434.963, 253.257 433.418, 260.765 429.528 C 263.919 427.894, 268.075 425.604, 270 424.440 C 271.925 423.276, 277.550 420.144, 282.500 417.480 C 287.450 414.816, 293.300 411.615, 295.500 410.367 C 297.700 409.119, 301.300 407.199, 303.500 406.101 C 305.700 405.004, 309.975 402.698, 313 400.979 C 328.750 392.027, 337.906 386.973, 340.079 386.032 C 341.411 385.456, 344.750 383.665, 347.500 382.053 C 350.250 380.441, 355.200 377.690, 358.500 375.939 C 361.800 374.189, 370.873 369.211, 378.663 364.878 C 386.453 360.545, 393.203 356.988, 393.663 356.973 C 394.123 356.958, 396.075 355.639, 398 354.041 C 401.241 351.350, 401.352 351.079, 399.500 350.384 C 397.864 349.769, 380.739 340.415, 375 337.002 C 364.660 330.852, 343.754 320.017, 342.337 320.073 C 341.327 320.113, 339.150 320.990, 337.500 322.021 M 605 409.345 C 605 445.241, 603.973 441.518, 615.550 447.597 C 619.372 449.604, 627.900 454.278, 634.500 457.983 C 641.100 461.689, 650.100 466.655, 654.500 469.019 C 671.303 478.048, 680.253 482.983, 685 485.837 C 686.925 486.995, 690.075 488.779, 692 489.802 C 693.925 490.826, 698.200 493.165, 701.500 495 C 704.800 496.835, 709.075 499.176, 711 500.202 C 712.925 501.228, 716.300 503.087, 718.500 504.335 C 722.774 506.757, 732.923 512.307, 747.500 520.190 C 752.450 522.867, 757.175 525.477, 758 525.990 C 758.825 526.502, 763.325 529.040, 768 531.629 C 772.675 534.217, 778.188 537.391, 780.250 538.680 L 784 541.025 784 602.858 C 784 660.510, 783.882 664.791, 782.250 666.184 C 780.598 667.594, 777.189 669.537, 760.500 678.581 C 756.650 680.667, 751.860 683.302, 749.855 684.437 C 747.850 685.572, 741.100 689.336, 734.855 692.802 C 728.610 696.268, 722.825 699.505, 722 699.996 C 710.754 706.690, 673.372 727, 672.299 727 C 671.513 727, 667.060 724.750, 662.404 722 C 657.748 719.250, 653.741 717, 653.500 717 C 653.259 717, 645.960 713.008, 637.281 708.129 C 619.712 698.254, 606.252 691, 605.497 691 C 605.224 691, 605 705.097, 605 722.326 C 605 757.370, 604.566 755.238, 612.500 759.219 C 614.150 760.047, 619.100 762.744, 623.500 765.212 C 627.900 767.680, 634.650 771.434, 638.500 773.553 C 642.350 775.673, 647.300 778.420, 649.500 779.657 C 656.748 783.733, 663.429 787.316, 668.264 789.721 L 673.028 792.091 677.764 789.654 C 680.369 788.314, 684.525 786.041, 687 784.604 C 689.475 783.167, 693.300 781.073, 695.500 779.951 C 697.700 778.829, 700.850 777.109, 702.500 776.130 C 704.150 775.151, 707.975 772.979, 711 771.303 C 714.025 769.627, 728.875 761.298, 744 752.795 C 759.125 744.291, 772.625 736.738, 774 736.011 C 775.375 735.284, 777.175 734.330, 778 733.891 C 781.030 732.279, 809.609 716.176, 813 714.170 C 814.925 713.032, 819.582 710.480, 823.348 708.501 C 827.115 706.521, 831.840 703.878, 833.848 702.628 C 835.857 701.377, 838.288 700.063, 839.250 699.708 C 840.900 699.100, 841 693.603, 841 603.582 L 841 508.102 837.750 505.663 C 835.962 504.322, 831.246 501.487, 827.268 499.363 C 823.290 497.238, 818.115 494.435, 815.768 493.133 C 813.421 491.831, 809.025 489.442, 806 487.823 C 802.975 486.205, 798.700 483.828, 796.500 482.541 C 794.300 481.255, 788.900 478.299, 784.500 475.974 C 780.100 473.649, 776.003 471.353, 775.395 470.871 C 774.282 469.989, 768.308 466.674, 760 462.328 C 757.525 461.033, 753.025 458.572, 750 456.859 C 740.389 451.415, 730.583 446.032, 728 444.781 C 726.625 444.115, 723.857 442.565, 721.848 441.335 C 719.840 440.105, 715.115 437.471, 711.348 435.481 C 707.582 433.491, 702.250 430.598, 699.500 429.051 C 687.469 422.286, 685.133 420.995, 678.746 417.579 C 669.258 412.505, 617.817 384.139, 616 382.979 C 612.523 380.758, 607.004 378, 606.040 378 C 605.342 378, 605 388.314, 605 409.345 M 304.967 426.222 C 300.860 428.461, 295.250 431.560, 292.500 433.109 C 289.750 434.659, 285.475 437.019, 283 438.354 C 280.525 439.690, 276.475 441.957, 274 443.392 C 271.525 444.828, 267.925 446.797, 266 447.768 C 264.075 448.739, 261.262 450.365, 259.750 451.382 L 257 453.230 257 554.646 C 257 640.082, 257.218 656.146, 258.384 656.594 C 259.145 656.886, 262.007 655.747, 264.744 654.062 C 267.482 652.378, 270.043 651, 270.436 651 C 270.829 651, 274.155 649.250, 277.826 647.111 C 281.496 644.972, 286.750 641.981, 289.500 640.464 C 304.594 632.138, 310.679 628.596, 312.250 627.221 C 313.895 625.782, 314 619.617, 314 524.404 C 314 468.697, 313.648 422.900, 313.217 422.634 C 312.787 422.368, 309.074 423.983, 304.967 426.222 M 44 483.604 C 37.675 487.206, 28.900 492.069, 24.500 494.412 C 15.179 499.376, 11.459 501.484, 5.408 505.228 L 1 507.956 1 602.823 C 1 707.613, 0.457 698.651, 7 701.826 C 8.375 702.494, 11.300 704.112, 13.500 705.423 C 15.700 706.734, 19.750 708.948, 22.500 710.343 C 25.250 711.738, 28.625 713.557, 30 714.385 C 34.474 717.081, 49.435 725.522, 52 726.797 C 53.375 727.480, 56.300 729.113, 58.500 730.425 C 60.700 731.736, 64.750 733.997, 67.500 735.449 C 70.250 736.901, 74.300 739.171, 76.500 740.493 C 78.700 741.815, 81.404 743.318, 82.508 743.832 C 83.612 744.346, 86.987 746.230, 90.008 748.018 C 95.380 751.199, 99.361 753.413, 111.500 759.971 C 114.800 761.754, 117.950 763.550, 118.500 763.963 C 119.490 764.705, 122.510 766.390, 139 775.404 C 143.675 777.960, 148.175 780.475, 149 780.992 C 149.825 781.510, 154.735 784.269, 159.911 787.122 L 169.321 792.310 176.411 788.652 C 180.310 786.640, 186.425 783.353, 190 781.347 C 193.575 779.342, 198.975 776.375, 202 774.754 C 205.025 773.134, 209.300 770.757, 211.500 769.472 C 213.700 768.187, 217.750 765.999, 220.500 764.610 C 223.250 763.220, 227.525 760.874, 230 759.396 C 232.475 757.918, 238.325 754.659, 243 752.154 C 247.675 749.649, 253.300 746.574, 255.500 745.322 C 257.700 744.070, 261.525 741.961, 264 740.635 C 266.475 739.309, 270.975 736.831, 274 735.129 C 277.025 733.427, 280.404 731.629, 281.508 731.134 C 282.612 730.639, 285.987 728.770, 289.008 726.982 C 295.303 723.255, 304.121 718.365, 308.500 716.172 C 310.150 715.346, 318.475 710.763, 327 705.989 C 335.525 701.214, 346.100 695.374, 350.500 693.012 C 390.453 671.558, 401.008 665.575, 400.681 664.567 C 400.514 664.053, 398.155 662.427, 395.439 660.952 C 390.176 658.096, 381.670 653.461, 373.500 648.998 C 370.750 647.496, 366.925 645.308, 365 644.136 C 363.075 642.964, 359.700 641.085, 357.500 639.959 C 355.300 638.833, 351.475 636.834, 349 635.515 C 343.270 632.463, 342.828 632.468, 337.192 635.649 C 334.612 637.107, 329.125 640.106, 325 642.315 C 320.875 644.523, 315.250 647.600, 312.500 649.152 C 309.750 650.705, 306.375 652.521, 305 653.188 C 303.625 653.856, 301.375 655.151, 300 656.066 C 298.625 656.981, 294.125 659.446, 290 661.544 C 285.875 663.641, 275.525 669.258, 267 674.025 C 258.475 678.793, 247.675 684.717, 243 687.190 C 229.817 694.163, 221.651 698.659, 206.732 707.157 C 199.159 711.471, 192.781 715, 192.557 715 C 192.333 715, 187.394 717.700, 181.581 721 C 170.123 727.505, 168.491 727.917, 164.885 725.210 C 163.573 724.226, 161.375 722.879, 160 722.217 C 158.625 721.556, 156.825 720.597, 156 720.088 C 155.175 719.578, 150.900 717.138, 146.500 714.666 C 142.100 712.194, 136.925 709.237, 135 708.094 C 133.075 706.951, 130.375 705.466, 129 704.794 C 127.625 704.121, 124.857 702.565, 122.848 701.335 C 120.840 700.105, 115.962 697.389, 112.010 695.299 C 108.058 693.210, 104.076 691.048, 103.162 690.495 C 98.941 687.941, 82.994 679, 82.661 679 C 82.455 679, 78.377 676.750, 73.598 674 C 68.819 671.250, 64.661 669, 64.359 669 C 64.056 669, 62.502 668.069, 60.904 666.932 L 58 664.864 58 602.440 L 58 540.016 61.419 538.258 C 70.508 533.585, 79.601 528.705, 80.500 528.017 C 81.050 527.596, 85.100 525.335, 89.500 522.993 C 109.770 512.202, 115.003 509.159, 114.993 508.168 C 114.990 507.801, 111.952 505.800, 108.243 503.723 C 104.534 501.645, 100.825 499.536, 100 499.035 C 88.918 492.314, 59.578 477.007, 57.818 477.028 C 56.543 477.043, 50.325 480.003, 44 483.604 M 612.500 485 C 604.800 489.360, 597.998 492.943, 597.385 492.964 C 596.772 492.984, 595.177 493.860, 593.841 494.910 C 592.505 495.961, 588.507 498.275, 584.956 500.053 C 581.405 501.830, 577.825 503.839, 577 504.518 C 576.175 505.196, 570.550 508.358, 564.500 511.545 C 558.450 514.732, 540 524.843, 523.500 534.014 C 507 543.184, 490.575 552.272, 487 554.208 C 483.425 556.144, 477.800 559.201, 474.500 561 C 471.200 562.799, 465.575 565.842, 462 567.761 C 446.759 575.942, 442.926 578.279, 443.235 579.205 C 443.543 580.128, 449.776 584.057, 456.500 587.565 C 458.150 588.426, 461.525 590.279, 464 591.682 C 466.475 593.086, 470.975 595.555, 474 597.169 C 477.025 598.784, 481.300 601.122, 483.500 602.365 C 485.700 603.609, 490.525 606.272, 494.221 608.284 L 500.943 611.942 509.721 606.963 C 514.550 604.225, 519.175 601.553, 520 601.027 C 520.825 600.501, 525.550 597.979, 530.500 595.423 C 535.450 592.867, 540.210 590.151, 541.079 589.388 C 541.947 588.625, 542.975 588, 543.363 588 C 543.752 588, 547.541 586.038, 551.785 583.640 C 556.028 581.243, 562.425 577.694, 566 575.755 C 575.607 570.544, 589.284 563.008, 591 561.980 C 591.825 561.486, 596.325 558.974, 601 556.398 C 605.675 553.822, 611.525 550.580, 614 549.194 C 616.475 547.807, 620.975 545.341, 624 543.712 C 632.293 539.249, 636.096 537.163, 640.500 534.660 C 649.521 529.535, 654.784 526.576, 660 523.697 C 663.025 522.027, 667.300 519.650, 669.500 518.415 C 671.700 517.180, 676.313 514.689, 679.750 512.880 C 686.097 509.539, 687.406 507.721, 684.250 506.626 C 683.288 506.292, 680.700 504.966, 678.500 503.679 C 676.300 502.392, 671.800 499.852, 668.500 498.034 C 665.200 496.217, 660.025 493.365, 657 491.696 C 653.975 490.028, 649.925 487.826, 648 486.802 C 646.075 485.779, 643.150 484.118, 641.500 483.112 C 633.959 478.515, 630.778 477.003, 628.720 477.036 C 627.499 477.057, 620.200 480.640, 612.500 485 M 334.454 543.260 C 334.188 543.953, 334.090 558.403, 334.235 575.372 L 334.500 606.224 341.500 609.862 C 352.269 615.459, 368.955 625.118, 369.569 626.111 C 369.871 626.600, 370.729 627, 371.476 627 C 372.223 627, 376.256 629.023, 380.438 631.495 C 384.620 633.968, 389.495 636.668, 391.271 637.495 C 393.047 638.323, 396.750 640.351, 399.500 642.002 C 402.250 643.654, 409.225 647.536, 415 650.629 C 420.775 653.723, 427.137 657.295, 429.137 658.566 C 431.137 659.838, 434.287 661.597, 436.137 662.474 C 439.858 664.240, 444.934 667.010, 452.500 671.407 C 455.250 673.005, 461.325 676.425, 466 679.009 C 470.675 681.592, 476.750 684.968, 479.500 686.512 C 482.250 688.055, 486.525 690.366, 489 691.646 C 491.475 692.927, 495.300 695.101, 497.500 696.477 C 501.927 699.246, 505.637 701, 507.065 701 C 507.626 701, 508 688.169, 508 668.969 C 508 639.375, 507.867 636.888, 506.250 636.292 C 505.288 635.937, 502.857 634.623, 500.848 633.372 C 498.840 632.122, 494.115 629.486, 490.348 627.514 C 486.582 625.542, 482.825 623.498, 482 622.972 C 478.797 620.930, 462.455 611.794, 458.581 609.880 C 456.337 608.770, 452.700 606.835, 450.500 605.579 C 448.300 604.322, 444.700 602.268, 442.500 601.014 C 440.300 599.760, 436.025 597.429, 433 595.833 C 429.975 594.238, 426.825 592.506, 426 591.985 C 424.809 591.233, 382.861 568.013, 355.500 552.960 C 352.750 551.447, 347.175 548.362, 343.112 546.105 C 334.739 541.453, 335.101 541.572, 334.454 543.260 M 578.867 589.920 C 576.869 590.823, 574.619 592.046, 573.867 592.638 C 573.115 593.231, 568.675 595.739, 564 598.213 C 559.325 600.687, 553.700 603.745, 551.500 605.009 C 549.300 606.273, 543.675 609.312, 539 611.763 C 534.325 614.213, 529.938 616.930, 529.250 617.800 C 528.271 619.040, 528 639.116, 528 710.500 C 528 781.907, 527.730 801.950, 526.750 803.156 C 526.063 804.001, 520.325 807.536, 514 811.009 C 507.675 814.483, 493.500 822.350, 482.500 828.491 C 417.256 864.918, 422.290 862.357, 418.727 860.937 C 416.952 860.230, 414.375 858.909, 413 858.001 C 411.625 857.094, 407.575 854.869, 404 853.057 C 400.425 851.246, 396.825 849.205, 396 848.523 C 395.175 847.841, 385.050 842.023, 373.500 835.593 C 361.950 829.164, 351.825 823.501, 351 823.010 C 350.175 822.518, 342.300 818.197, 333.500 813.406 C 324.700 808.616, 316.713 804.020, 315.750 803.193 C 314.148 801.817, 314 798.863, 314 768.345 C 314 750.005, 313.663 735.015, 313.250 735.033 C 312.837 735.052, 308 737.531, 302.500 740.543 C 297 743.554, 291.150 746.696, 289.500 747.524 C 287.850 748.352, 285.825 749.451, 285 749.966 C 279.962 753.111, 264.083 762, 263.503 762 C 263.121 762, 261.496 762.935, 259.892 764.077 L 256.975 766.154 257.237 801.229 L 257.500 836.303 264 839.757 C 267.575 841.657, 271.625 843.928, 273 844.806 C 274.375 845.683, 277.525 847.497, 280 848.838 C 282.475 850.178, 286.183 852.226, 288.241 853.388 C 290.298 854.549, 299.523 859.692, 308.741 864.815 C 317.958 869.938, 326.175 874.544, 327 875.050 C 327.825 875.557, 330.075 876.815, 332 877.846 C 333.925 878.878, 339.550 882.052, 344.500 884.901 C 353.535 890.100, 354.436 890.604, 358.944 892.974 C 360.287 893.681, 371.762 900.114, 384.444 907.270 C 397.125 914.426, 408.850 920.968, 410.500 921.807 C 412.150 922.645, 414.573 924.157, 415.885 925.166 C 418.846 927.443, 422.819 927.516, 425.911 925.350 C 427.206 924.442, 430.119 922.713, 432.383 921.508 C 442.605 916.066, 459.048 906.897, 462 904.995 C 462.825 904.464, 465.075 903.213, 467 902.216 C 468.925 901.218, 473.650 898.578, 477.500 896.348 C 481.350 894.117, 486.975 890.932, 490 889.270 C 493.025 887.607, 500.852 883.231, 507.393 879.545 C 513.934 875.858, 520.234 872.424, 521.393 871.913 C 522.552 871.402, 525.583 869.750, 528.128 868.242 C 530.673 866.734, 544.286 859.051, 558.378 851.169 L 584 836.838 584 712.978 C 584 644.855, 583.663 588.929, 583.250 588.699 C 582.837 588.468, 580.865 589.018, 578.867 589.920"  fill="#171717" fill-rule="evenodd"/>
</svg>
