<svg version="1.1" id="Layer_1" xmlns="http://www.w3.org/2000/svg" xmlns:xlink="http://www.w3.org/1999/xlink" x="0px" y="0px"
	 width="100%" viewBox="0 0 992 1079" enable-background="new 0 0 992 1079" xml:space="preserve">
<path fill="#000000" opacity="1.000000" stroke="none" 
	d="
M534.000000,1080.000000 
	C356.000000,1080.000000 178.500000,1080.000000 1.000000,1080.000000 
	C1.000000,720.333313 1.000000,360.666656 1.000000,1.000000 
	C331.666656,1.000000 662.333313,1.000000 993.000000,1.000000 
	C993.000000,360.666656 993.000000,720.333313 993.000000,1080.000000 
	C840.166687,1080.000000 687.333313,1080.000000 534.000000,1080.000000 
M413.803528,383.271179 
	C413.527344,383.376678 413.357361,383.573822 412.503082,383.803406 
	C411.703827,383.979980 410.800537,383.973907 410.121033,384.360809 
	C401.188690,389.446411 392.353149,394.705475 383.359039,399.678131 
	C375.869110,403.819153 368.099579,407.457520 360.639435,411.648712 
	C350.896973,417.122131 341.455719,423.135803 331.670410,428.527802 
	C318.230560,435.933533 304.517151,442.841797 291.054443,450.207275 
	C276.154724,458.358887 261.421753,466.814850 246.582184,475.077240 
	C241.236206,478.053802 235.748276,480.775726 230.407471,483.761139 
	C226.944626,485.696808 226.986664,487.433350 230.420227,489.338593 
	C237.781097,493.423065 245.180893,497.437317 252.557861,501.492828 
	C263.082947,507.278992 273.515442,513.245422 284.204224,518.710999 
	C286.097717,519.679199 289.300659,519.195251 291.457275,518.308167 
	C295.871521,516.492493 300.018738,514.007385 304.218506,511.693756 
	C333.617859,495.498016 362.984161,479.242279 392.397919,463.072784 
	C414.478577,450.934509 436.628784,438.922729 458.715576,426.795532 
	C464.587952,423.571167 470.340912,420.129303 477.139221,416.217285 
	C474.621735,414.600342 473.209473,413.597534 471.709442,412.750031 
	C468.691467,411.044861 465.612061,409.448914 462.582367,407.764069 
	C454.865967,403.472778 447.181946,399.122742 439.441467,394.875519 
	C437.440735,393.777740 435.279541,392.972382 433.012756,391.283752 
	C430.332123,389.816071 427.651520,388.348389 424.981628,387.006989 
	C424.981628,387.006989 425.107971,386.997040 424.860565,386.313049 
	C422.567963,385.207092 420.275330,384.101166 417.665466,382.888824 
	C417.665466,382.888824 417.364624,383.035278 416.884552,382.499786 
	C415.897278,382.671570 414.910004,382.843353 414.018890,383.108276 
	C414.018890,383.108276 414.115417,383.015503 413.803528,383.271179 
M303.993103,303.075012 
	C303.993103,303.075012 303.913086,303.113098 304.194305,303.795959 
	C305.162964,303.907013 306.131653,304.018066 307.067474,303.931122 
	C307.067474,303.931122 306.868835,303.959747 307.233307,304.692017 
	C308.695679,305.208008 310.158020,305.723969 311.983978,306.368225 
	C311.983978,284.104126 311.987701,262.802490 311.978088,241.500854 
	C311.977173,239.409637 312.510498,236.916626 308.435272,236.716736 
	C298.792175,231.092178 289.228607,225.325302 279.484314,219.881927 
	C269.137543,214.101990 258.677216,208.516632 248.142883,203.086090 
	C244.701920,201.312256 240.978653,200.951035 237.210327,203.009079 
	C229.524551,207.206604 221.639709,211.041122 213.974075,215.273697 
	C203.274734,221.181305 192.749268,227.403458 182.061188,233.331955 
	C168.770920,240.703842 155.367950,247.872299 142.055740,255.205032 
	C128.916519,262.442505 115.834503,269.783722 102.718422,277.063232 
	C93.908394,281.952850 85.044006,286.746918 76.311012,291.769897 
	C75.167648,292.427521 74.662277,294.194336 73.427391,296.035461 
	C72.947533,301.862915 72.060616,307.689667 72.050957,313.517883 
	C71.957291,370.033752 71.994125,426.549835 72.104996,483.065674 
	C72.108215,484.705841 73.338760,486.343628 74.242722,488.657440 
	C79.801048,491.820221 85.321976,495.050964 90.925018,498.132446 
	C105.135696,505.947815 119.439499,513.595398 133.598404,521.502869 
	C145.268890,528.020630 156.717331,534.936035 168.391312,541.447266 
	C177.770920,546.678833 187.413788,551.437256 196.811386,556.637817 
	C216.781418,567.689087 236.668655,578.889954 256.588165,590.032471 
	C267.137634,595.933472 277.629486,601.940369 288.249939,607.710571 
	C295.447571,611.621216 302.823608,615.203491 310.984070,618.957581 
	C311.312317,618.485535 311.926361,618.014282 311.927643,617.541260 
	C311.985748,596.127319 312.012756,574.713196 311.914276,553.299683 
	C311.910522,552.483215 310.634521,551.672729 309.977814,551.007141 
	C309.977814,551.007141 310.125610,550.981506 309.815674,550.368652 
	C308.918457,550.334290 308.021271,550.299927 306.821808,549.603394 
	C298.664368,544.997620 290.502502,540.399658 282.350555,535.784180 
	C271.485138,529.632324 260.665741,523.397949 249.755783,517.326233 
	C238.522751,511.074707 227.204224,504.976898 215.924042,498.810120 
	C209.008636,495.029541 202.113922,491.210632 195.175583,487.472687 
	C187.218567,483.185913 179.181641,479.046234 171.254593,474.705383 
	C158.153687,467.531372 145.113068,460.247284 131.981171,452.073029 
	C132.019302,411.044769 132.057434,370.016541 132.031570,329.009888 
	C132.031570,329.009888 132.081390,329.055573 132.724945,328.920044 
	C132.776306,328.293030 132.827667,327.666046 133.484879,327.323486 
	C134.405029,327.268433 135.513474,327.528717 136.216064,327.109283 
	C142.847519,323.150055 149.409790,319.074921 156.787888,314.945038 
	C162.286133,311.955627 167.784378,308.966248 173.907684,305.748138 
	C181.772156,301.640533 189.717422,297.679352 197.483124,293.392822 
	C210.803696,286.040039 224.063843,278.573486 237.232681,270.953064 
	C240.712204,268.939545 243.622421,269.065338 246.971603,271.059418 
	C252.950974,274.619537 259.066620,277.953674 265.163544,281.312897 
	C277.705475,288.223053 290.272614,295.087463 302.978546,302.545166 
	C303.302185,302.747498 303.625854,302.949829 303.993103,303.075012 
M789.026733,766.016235 
	C789.026733,766.016235 789.039062,765.884399 788.293335,766.062012 
	C786.510620,767.345520 782.797424,766.036682 782.277161,769.971313 
	C779.655090,771.315857 776.987427,772.579163 774.419373,774.019836 
	C766.136047,778.666992 757.910156,783.416443 749.616943,788.045654 
	C746.859924,789.584656 744.271973,789.350952 741.360352,787.673767 
	C736.374573,784.801697 731.055603,782.507812 725.965332,779.206665 
	C720.333191,775.589539 715.440918,770.495789 707.866333,769.557922 
	C699.040222,764.717590 690.214172,759.877197 681.067322,754.309875 
	C679.912903,753.793030 678.469727,752.602295 677.681396,752.940002 
	C676.810974,753.312927 676.082947,755.085022 676.077393,756.251404 
	C675.981201,776.531433 675.992432,796.812012 676.043762,817.092285 
	C676.046265,818.097900 676.627014,819.102112 676.951721,820.040833 
	C676.951721,820.040833 676.951416,820.098572 677.137024,820.668152 
	C678.027893,821.068909 678.918701,821.469666 680.493835,822.141113 
	C684.795837,824.538879 689.095093,826.941589 693.400208,829.333679 
	C709.987000,838.550232 726.550659,847.809448 743.211731,856.889832 
	C744.523865,857.604980 746.856995,857.702393 748.142456,857.014954 
	C759.938721,850.707031 771.633911,844.207947 783.309082,837.676025 
	C802.964111,826.679688 822.561768,815.580750 842.223022,804.595398 
	C862.907349,793.038513 883.659607,781.602966 904.326477,770.015137 
	C907.686401,768.131348 910.758179,765.733643 914.799255,763.218811 
	C915.198425,761.589844 915.940979,759.961792 915.945496,758.331726 
	C916.022644,730.369324 916.013062,702.406738 916.013367,674.444153 
	C916.013794,640.988586 916.004456,607.532959 916.003845,574.077393 
	C916.003845,571.431641 916.569702,568.380005 911.505371,568.911255 
	C899.547180,561.963745 887.697083,554.821106 875.601990,548.120728 
	C862.065796,540.622009 848.272644,533.588745 834.656372,526.232422 
	C822.153931,519.477783 809.718445,512.598145 797.289856,505.708008 
	C786.524780,499.740082 775.827881,493.649261 765.069031,487.670074 
	C755.582214,482.397797 746.053223,477.201477 736.539795,471.977203 
	C721.380493,463.652527 706.218689,455.332550 690.912842,446.472870 
	C690.611572,446.269592 690.310303,446.066345 690.008789,445.966522 
	C690.008789,445.966522 690.112183,445.965485 689.937073,445.259552 
	C686.955139,443.798950 683.973267,442.338318 680.992737,441.006348 
	C680.992737,441.006348 681.121399,441.005371 680.836182,440.257446 
	C679.469055,439.749817 678.101868,439.242188 675.994080,438.459534 
	C675.994080,461.365387 675.956116,483.305359 676.124268,505.243683 
	C676.131470,506.180786 678.044800,507.103241 679.605225,508.484528 
	C682.245056,509.792603 684.946777,510.989990 687.515076,512.426025 
	C710.023865,525.011963 732.461304,537.726318 755.017334,550.226746 
	C770.310364,558.702026 785.802368,566.817566 801.128418,575.234192 
	C819.078735,585.091980 836.945557,595.101868 855.167908,605.458557 
	C855.444824,605.664551 855.721802,605.870605 856.035645,605.980286 
	C856.035645,605.980286 855.939941,605.941650 856.056091,606.881409 
	C856.024719,646.949036 855.993408,687.016602 855.863464,727.266113 
	C855.863464,727.266113 855.991699,727.428406 855.398987,727.839783 
	C854.896423,728.564575 854.393860,729.289429 853.225342,730.224243 
	C850.972656,731.474060 848.720520,732.724854 846.467102,733.973389 
	C834.196655,740.771606 821.894531,747.513489 809.677307,754.406189 
	C806.591614,756.147095 803.777161,758.368713 800.068237,760.269470 
	C798.007568,761.169250 795.946899,762.069031 793.989319,762.979797 
	C793.989319,762.979797 793.999268,762.876587 793.260193,762.938171 
	C791.805054,763.960510 790.349915,764.982849 789.026733,766.016235 
M800.054443,488.727539 
	C803.041931,490.182526 806.029358,491.637482 809.351807,493.691772 
	C824.644836,502.099945 839.917847,510.545044 855.270203,518.843506 
	C856.448853,519.480591 858.504761,519.675537 859.616394,519.077942 
	C874.876282,510.874420 890.072388,502.550079 905.205139,494.113800 
	C908.299683,492.388641 911.069946,490.081787 914.828064,487.839325 
	C915.216492,486.566376 915.943726,485.293762 915.944885,484.020508 
	C915.999756,421.589661 915.998901,359.158752 915.944519,296.727905 
	C915.943420,295.465363 915.237854,294.203400 914.217651,292.721558 
	C901.700806,285.717896 889.214355,278.659180 876.659851,271.723663 
	C858.759827,261.835083 840.820435,252.017578 822.877197,242.207611 
	C812.946228,236.778198 802.973022,231.426041 792.945251,225.430450 
	C792.592468,225.270020 792.239685,225.109589 791.695496,224.852890 
	C791.695496,224.852890 791.563965,225.022079 791.084717,224.366684 
	C789.377441,223.536133 787.670105,222.705597 785.980103,222.008530 
	C785.980103,222.008530 786.113708,221.992111 785.873352,221.302170 
	C782.032715,219.604996 778.192078,217.907822 773.804321,215.698868 
	C773.085205,215.034744 772.466370,214.183060 771.630981,213.736130 
	C764.822449,210.093506 758.079529,206.296844 751.078491,203.062607 
	C748.668396,201.949249 745.032776,201.150940 742.903320,202.175507 
	C733.990417,206.463776 725.398743,211.431168 716.764343,216.282974 
	C710.566711,219.765488 704.559937,223.589767 698.339172,227.028397 
	C689.055481,232.160049 679.606934,236.993317 670.322510,242.123703 
	C658.884644,248.444092 647.607422,255.056259 636.143738,261.328491 
	C622.534180,268.774872 608.749756,275.901642 595.137085,283.342529 
	C585.584106,288.564331 576.242249,294.171051 566.715637,299.442474 
	C552.951172,307.058838 539.077637,314.478149 525.309631,322.088226 
	C521.076782,324.427826 517.036682,327.116119 512.262024,330.040649 
	C514.411133,331.693207 515.600098,332.836700 516.987915,333.634033 
	C522.263367,336.665039 527.618958,339.556091 532.915527,342.551086 
	C543.874023,348.747681 554.822449,354.962097 565.756836,361.201202 
	C569.859009,363.541840 574.004761,364.454437 578.415100,362.055756 
	C585.096924,358.421692 591.844177,354.904541 598.469666,351.171021 
	C622.423828,337.672638 646.298340,324.032715 670.279663,310.583038 
	C694.421143,297.043518 718.623169,283.610504 742.914612,270.343018 
	C744.579102,269.433899 747.606323,269.548584 749.333923,270.455536 
	C765.272095,278.822449 781.129150,287.350403 796.881104,296.064148 
	C816.559021,306.949738 836.115417,318.055115 855.969788,329.966003 
	C855.989380,369.330414 856.019409,408.694824 855.990540,448.059204 
	C855.989380,449.648010 855.430481,451.236420 854.644958,453.334076 
	C844.322876,459.123352 834.003113,464.916718 823.677795,470.700348 
	C818.072510,473.840088 812.457825,476.963196 806.101013,480.094666 
	C804.362793,480.701843 802.409180,480.999176 800.952698,482.011658 
	C799.728699,482.862488 798.878540,484.464661 798.304749,485.909698 
	C798.128113,486.354309 799.406738,487.376831 800.010864,488.009186 
	C800.010864,488.009186 799.885315,488.016907 800.054443,488.727539 
M607.579224,929.938904 
	C608.328491,929.307373 609.077820,928.675842 610.750000,927.867065 
	C611.036072,927.739380 611.322205,927.611694 611.240234,927.376953 
	C611.240234,927.376953 611.233398,926.995850 611.233398,926.995850 
	C611.233398,926.995850 611.586243,926.858154 612.360657,926.915161 
	C613.750977,926.425842 615.239868,926.116638 616.515747,925.418274 
	C625.316040,920.601440 634.145020,915.829102 642.814270,910.783875 
	C648.012695,907.758484 652.939331,904.265930 657.970581,900.048340 
	C657.982056,819.095703 658.000366,738.143066 657.966125,657.190430 
	C657.965271,655.149902 657.384888,653.109558 656.288574,650.971375 
	C654.903137,651.348877 653.376526,651.469727 652.153564,652.142456 
	C634.724976,661.730042 617.337463,671.392212 599.222290,681.512024 
	C599.141968,682.499451 598.991455,683.486816 598.991333,684.474243 
	C598.982605,742.934631 599.000366,801.395081 598.941895,859.855408 
	C598.939331,862.424133 598.250671,864.992188 597.231384,867.525146 
	C594.814758,868.971069 592.437012,870.487183 589.974670,871.850342 
	C580.163025,877.281982 570.316040,882.649719 560.499756,888.072815 
	C553.331970,892.032776 546.198547,896.054688 539.037231,900.026489 
	C530.833496,904.576416 522.582275,909.041626 514.416138,913.657654 
	C508.663269,916.909668 503.088531,920.483032 497.272644,923.612610 
	C495.908691,924.346558 493.572021,924.508362 492.229034,923.838440 
	C485.284149,920.374146 478.467377,916.641968 471.697815,912.839600 
	C458.696381,905.536804 445.754425,898.128052 432.792267,890.755432 
	C424.764587,886.189514 416.787781,881.532166 408.709198,877.058472 
	C401.856934,873.263855 394.891449,869.673767 387.886169,865.060425 
	C387.894653,844.500366 387.921631,823.940186 387.878540,803.380249 
	C387.874908,801.635559 387.403656,799.891724 386.390411,798.042725 
	C385.745758,798.140564 385.009277,798.068848 384.469849,798.360962 
	C371.013031,805.650208 357.543976,812.918213 344.154724,820.330261 
	C339.340149,822.995544 334.726776,826.024231 329.233948,829.302307 
	C329.157471,852.871582 329.066193,876.440857 329.083099,900.010071 
	C329.083557,900.651123 330.250153,901.291382 331.515289,902.239624 
	C346.535980,910.841431 361.490112,919.562256 376.594727,928.014099 
	C394.196045,937.863098 412.003754,947.343933 429.584900,957.228149 
	C449.507996,968.429199 469.224701,979.998230 489.192627,991.117249 
	C491.432159,992.364197 495.230835,992.807678 497.431396,991.769287 
	C505.339172,988.037720 512.901184,983.563416 520.539368,979.272766 
	C534.981689,971.159668 549.424438,963.045898 563.791443,954.800842 
	C571.818359,950.194336 579.693604,945.323486 587.204834,940.223267 
	C588.489014,939.788208 589.773193,939.353210 590.937988,938.946045 
	C590.937988,938.946045 590.962402,939.066162 591.734375,938.958191 
	C596.732178,936.581909 601.743347,934.232605 606.698853,931.771118 
	C607.042603,931.600342 606.972717,930.596863 606.951782,929.976196 
	C606.951782,929.976196 606.945129,930.119446 607.579224,929.938904 
M407.153717,359.776886 
	C408.100189,359.843445 409.046631,359.910034 410.270294,360.625671 
	C418.291199,365.205933 426.265198,369.870819 434.345703,374.343414 
	C443.020325,379.144806 451.867493,383.636444 460.509979,388.493469 
	C475.595825,396.971680 490.472992,405.825653 505.636719,414.159882 
	C528.073608,426.491577 550.667969,438.537720 573.250977,450.601135 
	C575.178894,451.631012 577.524597,451.878662 579.509644,452.648224 
	C579.509644,452.648224 579.368774,452.466339 579.958984,452.900269 
	C580.197632,452.952026 580.436279,453.003784 581.149292,453.600647 
	C581.800476,452.241638 583.012024,450.885315 583.018555,449.523224 
	C583.112427,429.966095 583.082520,410.407867 582.927063,390.851166 
	C582.916748,389.557861 581.652344,388.274536 580.200928,386.771484 
	C579.934509,386.763458 579.668030,386.755402 579.102417,387.001648 
	C578.800537,386.793243 578.498718,386.584839 577.897888,385.672760 
	C569.124695,380.485321 560.463257,375.096039 551.549377,370.162903 
	C541.023499,364.337677 530.226379,359.004517 519.646729,353.273773 
	C511.250183,348.725586 503.030762,343.851715 494.682709,339.212280 
	C487.623810,335.289215 480.482239,331.515076 473.396973,327.639038 
	C463.138641,322.027100 452.903839,316.372162 442.648407,310.755005 
	C431.832703,304.830963 421.004547,298.929688 409.737000,292.299347 
	C408.534912,292.299347 407.332855,292.299347 406.009003,292.299347 
	C406.009003,314.056824 405.998352,335.326935 406.048798,356.596863 
	C406.050781,357.427185 406.637665,358.256165 406.982086,359.000000 
	C406.982086,359.000000 406.941162,359.084991 407.153717,359.776886 
M657.046875,231.050095 
	C657.046875,231.050095 657.072571,231.039948 657.864502,230.658279 
	C657.913452,205.802643 657.974182,180.946991 657.969360,156.091370 
	C657.969116,155.068726 657.353394,154.046204 656.409851,152.704422 
	C646.734253,146.950134 637.162659,141.010696 627.350220,135.500031 
	C619.470154,131.074615 611.186584,127.370712 603.277344,122.993835 
	C581.216309,110.785606 559.311035,98.295776 537.237854,86.109924 
	C522.937866,78.215378 508.451111,70.659119 493.970215,62.909611 
	C489.721130,65.385628 485.541473,67.969704 481.228882,70.308716 
	C461.934845,80.773201 442.607971,91.177139 423.283112,101.584648 
	C408.629364,109.476471 393.904663,117.238640 379.317078,125.250656 
	C368.323547,131.288727 357.509583,137.653122 346.591095,143.828812 
	C341.122711,146.921860 335.599426,149.917831 329.231171,153.205139 
	C329.159424,154.694519 329.025146,156.183868 329.024902,157.673264 
	C329.011993,233.141769 329.010498,308.610260 329.007843,384.078766 
	C329.007538,392.555725 329.007782,401.032684 329.007782,410.085144 
	C330.740906,409.630310 331.998627,409.300262 333.958282,409.043762 
	C336.912659,407.308655 339.825287,405.497284 342.828644,403.851624 
	C356.254791,396.495117 369.706818,389.185913 383.804993,381.543060 
	C385.232239,380.828766 386.659454,380.114441 387.940918,379.473053 
	C387.940918,322.410004 387.931549,265.660309 387.953522,208.910614 
	C387.956085,202.260559 388.131195,195.610580 388.850800,188.711075 
	C397.863068,183.932556 406.903442,179.206146 415.880554,174.362427 
	C427.248566,168.228638 438.604706,162.070694 449.893524,155.792831 
	C463.054047,148.474060 476.031189,140.815125 489.347290,133.795853 
	C491.806641,132.499451 495.994537,132.498169 498.528564,133.701660 
	C505.962280,137.232208 512.908691,141.773270 520.147827,145.732254 
	C533.767151,153.180405 547.468872,160.477615 561.115601,167.875854 
	C573.451477,174.563461 585.759766,181.302032 598.595154,188.687775 
	C598.724609,190.651627 598.964355,192.615326 598.966675,194.579330 
	C598.993225,216.938370 598.983521,239.297440 598.983521,262.199280 
	C600.609314,261.723999 601.894348,261.348328 603.883057,261.052460 
	C620.517395,251.736450 637.151733,242.420456 654.515991,233.156494 
	C655.359680,232.463577 656.203369,231.770660 657.046875,231.050095 
M382.992065,693.988831 
	C382.992065,693.988831 382.978943,694.059631 383.814392,694.028076 
	C386.224457,693.800537 388.020325,693.551514 388.014282,690.089600 
	C387.896729,622.910767 387.928101,555.731567 387.926605,488.552460 
	C387.926605,487.554871 388.288940,486.164337 387.782501,485.660583 
	C387.169098,485.050415 385.809875,485.190002 384.187622,485.328308 
	C366.104889,495.230713 348.022186,505.133148 329.153503,515.412170 
	C329.109100,516.075317 329.025909,516.738464 329.025787,517.401611 
	C329.013367,584.728638 329.006012,652.055664 329.010925,719.382690 
	C329.011017,720.515076 329.164429,721.647461 329.273773,723.160217 
	C331.220032,722.741089 332.894714,722.380493 334.599945,722.122742 
	C334.599945,722.122742 334.703522,722.094604 335.458923,722.024292 
	C335.837646,721.689880 336.216370,721.355408 336.512665,720.987305 
	C336.512665,720.987305 336.478516,721.069519 337.285370,721.019104 
	C337.550201,720.605713 337.815063,720.192261 338.623718,719.432861 
	C352.139313,711.902649 365.654907,704.372437 379.743317,696.599609 
	C380.849854,695.733521 381.956390,694.867432 382.992065,693.988831 
M407.713257,672.161926 
	C413.959686,675.567749 420.221375,678.945923 426.449493,682.384766 
	C442.957245,691.499451 459.446716,700.647217 475.950470,709.769165 
	C494.213776,719.863831 512.496460,729.923401 530.748352,740.038635 
	C541.848083,746.190308 552.878784,752.466797 563.993591,758.591003 
	C569.279785,761.503723 574.690002,764.191528 580.522705,767.537964 
	C581.387512,766.504883 582.999756,765.476807 583.006653,764.438049 
	C583.140320,744.401855 583.202637,724.363220 582.996582,704.328003 
	C582.937683,698.593201 579.882202,696.814026 573.838135,696.570374 
	C566.631775,692.314453 559.481873,687.958984 552.205444,683.826416 
	C541.904724,677.976440 531.514954,672.283081 521.154907,666.537903 
	C514.076782,662.612671 506.976440,658.727600 499.900604,654.798340 
	C491.853851,650.329956 483.815094,645.846924 475.788361,641.342712 
	C470.107666,638.155029 464.486633,634.859802 458.779175,631.721313 
	C446.779572,625.122803 434.786224,618.510132 422.695496,612.081482 
	C417.769714,609.462402 412.597473,607.306824 406.640381,605.181458 
	C406.436066,606.122131 406.055573,607.062378 406.053406,608.003540 
	C406.006439,628.533020 405.989838,649.062500 406.031982,669.591980 
	C406.033630,670.396423 406.673767,671.199585 407.713257,672.161926 
M653.890442,338.061859 
	C645.209534,342.693726 636.462524,347.206818 627.865540,351.989502 
	C618.516052,357.190826 609.305969,362.642639 599.181824,368.256317 
	C599.116089,368.749512 598.992859,369.242676 598.992798,369.735870 
	C598.982056,437.061066 598.975037,504.386230 599.023621,571.711365 
	C599.024414,572.819092 599.709290,573.926331 600.623474,575.364624 
	C602.896301,574.583435 605.322388,574.089600 607.416199,572.972717 
	C618.070312,567.289490 628.686096,561.530029 639.218140,555.624084 
	C645.259338,552.236450 651.115906,548.519409 657.758423,544.471680 
	C657.829468,543.979065 657.962585,543.486511 657.962769,542.993896 
	C657.981567,475.519989 657.995911,408.046051 657.958618,340.572174 
	C657.957947,339.382690 657.333313,338.193542 656.518494,336.933441 
	C656.518494,336.933441 656.034241,336.981262 655.419434,337.105530 
	C655.134583,337.410461 654.849670,337.715393 653.890442,338.061859 
M74.511971,765.153076 
	C77.668922,766.838989 80.824272,768.527954 83.983147,770.210266 
	C91.572075,774.251648 99.228210,778.172180 106.739319,782.353271 
	C123.905510,791.909058 140.983383,801.623352 158.130661,811.213318 
	C172.863113,819.452759 187.676834,827.547241 202.389923,835.820923 
	C214.790039,842.793884 227.069443,849.981812 239.488083,856.921021 
	C240.734726,857.617615 242.843170,857.838623 244.093231,857.270996 
	C248.622238,855.214111 253.021576,852.842224 257.346771,850.373535 
	C263.068420,847.107605 268.579285,843.464783 274.358185,840.308838 
	C279.551514,837.472656 285.107819,835.299194 290.289032,832.443359 
	C307.131866,823.159546 323.833771,813.620178 340.674683,804.332825 
	C350.337341,799.004028 360.224213,794.082520 369.900970,788.778503 
	C381.059875,782.662109 392.065277,776.266235 403.196381,770.098267 
	C426.679749,757.085876 450.199249,744.138611 473.715759,731.186279 
	C474.716156,730.635315 475.836243,730.301636 476.900574,729.866821 
	C470.728119,725.008667 465.518799,721.916260 460.233032,718.960632 
	C448.266357,712.269470 436.334930,705.508301 424.227905,699.079285 
	C420.641907,697.174988 417.135895,694.224731 412.257233,696.961914 
	C393.667786,707.391113 374.931274,717.558472 356.239410,727.804810 
	C343.207245,734.948669 330.168091,742.079956 317.114044,749.183777 
	C304.737976,755.918701 292.262848,762.475403 279.970917,769.359802 
	C268.074158,776.022766 256.367676,783.024902 244.533264,789.800598 
	C243.662750,790.298950 242.168350,790.656738 241.415283,790.248230 
	C237.985336,788.387207 234.761230,786.152100 231.381790,784.191711 
	C221.898376,778.690308 212.393982,773.224365 202.862137,767.807251 
	C191.972412,761.618530 181.061249,755.466919 170.128006,749.355347 
	C157.938522,742.541504 145.713730,735.790771 133.081970,728.412781 
	C132.720459,728.084351 132.358948,727.755920 132.146835,727.318298 
	C132.146835,727.318298 132.065262,727.152161 131.994217,726.196411 
	C131.998779,690.431519 131.992874,654.666687 132.020706,618.901794 
	C132.024323,614.254456 132.201950,609.607300 132.997818,605.024475 
	C152.194595,594.467957 171.391388,583.911499 190.588165,573.354980 
	C190.450226,572.777466 190.312286,572.199890 190.174347,571.622375 
	C185.669449,569.038757 181.156799,566.468506 176.661438,563.868347 
	C169.537415,559.747803 162.484100,555.500793 155.291107,551.504883 
	C147.985550,547.446472 140.569092,543.584534 133.141205,539.752930 
	C132.112442,539.222229 130.534866,538.872253 129.564667,539.279785 
	C126.844559,540.422363 124.319817,542.024963 121.699356,543.410889 
	C108.865364,550.198364 95.945763,556.830322 83.236885,563.844238 
	C79.528458,565.890808 76.414520,569.014587 72.237633,572.114258 
	C72.157387,572.600891 72.006966,573.087463 72.006828,573.574097 
	C71.989395,635.448303 71.965378,697.322449 72.058334,759.196533 
	C72.061218,761.118469 73.281303,763.038513 74.511971,765.153076 
M754.397888,577.518799 
	C756.821594,575.842773 759.245239,574.166809 761.924622,572.314026 
	C755.744202,568.445312 750.747742,565.003967 745.466858,562.075562 
	C733.403015,555.385864 721.155029,549.028687 709.078003,542.362122 
	C704.873108,540.041016 700.715637,538.880859 696.321594,541.299011 
	C685.918640,547.024414 675.612976,552.926392 665.231934,558.691895 
	C651.926025,566.081909 638.577026,573.394226 625.260681,580.765442 
	C610.144897,589.132812 595.057251,597.550964 579.933594,605.904053 
	C568.665833,612.127563 557.360229,618.282654 546.071472,624.468262 
	C536.203796,629.875244 526.312439,635.240173 516.498047,640.742249 
	C515.265991,641.432922 514.438965,642.846252 513.157410,644.208374 
	C516.729919,646.207153 519.597351,647.807922 522.461548,649.414551 
	C537.546448,657.875488 552.707520,666.205322 567.664551,674.886658 
	C571.760498,677.263977 575.135376,677.419861 579.087769,674.909912 
	C585.506165,670.834106 591.985718,666.822021 598.661865,663.192139 
	C609.530273,657.282654 620.682556,651.893860 631.529541,645.947083 
	C659.402161,630.665833 687.186951,615.224182 714.978333,599.795227 
	C727.983948,592.574829 740.923767,585.235962 754.397888,577.518799 
z"/>
<path fill="#23272A" opacity="1.000000" stroke="none" 
	d="
M155.992004,315.033203 
	C149.409790,319.074921 142.847519,323.150055 136.216064,327.109283 
	C135.513474,327.528717 134.405029,327.268433 132.860229,327.360962 
	C132.184174,327.950806 132.132782,328.503174 132.081390,329.055573 
	C132.081390,329.055573 132.031570,329.009888 131.631104,329.120972 
	C131.090012,330.042542 130.826370,330.852997 130.826447,331.663483 
	C130.830246,370.767853 130.845200,409.872223 130.929810,448.976471 
	C130.932709,450.321625 131.658310,451.665253 132.047058,453.009583 
	C145.113068,460.247284 158.153687,467.531372 171.254593,474.705383 
	C179.181641,479.046234 187.218567,483.185913 195.175583,487.472687 
	C202.113922,491.210632 209.008636,495.029541 215.924042,498.810120 
	C227.204224,504.976898 238.522751,511.074707 249.755783,517.326233 
	C260.665741,523.397949 271.485138,529.632324 282.350555,535.784180 
	C290.502502,540.399658 298.664368,544.997620 307.273163,550.074097 
	C308.524872,550.690430 309.325226,550.835999 310.125610,550.981567 
	C310.125610,550.981506 309.977814,551.007141 309.959412,551.365967 
	C310.233765,553.146118 310.777100,554.566650 310.781525,555.988953 
	C310.842499,575.537231 310.844269,595.085754 310.803375,614.634094 
	C310.800385,616.067383 310.357971,617.499756 310.119873,618.932556 
	C302.823608,615.203491 295.447571,611.621216 288.249939,607.710571 
	C277.629486,601.940369 267.137634,595.933472 256.588165,590.032471 
	C236.668655,578.889954 216.781418,567.689087 196.811386,556.637817 
	C187.413788,551.437256 177.770920,546.678833 168.391312,541.447266 
	C156.717331,534.936035 145.268890,528.020630 133.598404,521.502869 
	C119.439499,513.595398 105.135696,505.947815 90.925018,498.132446 
	C85.321976,495.050964 79.801048,491.820221 74.020660,487.860107 
	C73.710915,485.572601 73.547714,484.082458 73.546463,482.592224 
	C73.499420,426.684509 73.453018,370.776764 73.452560,314.869049 
	C73.452507,308.395172 73.718666,301.921295 73.861404,295.447418 
	C74.662277,294.194336 75.167648,292.427521 76.311012,291.769897 
	C85.044006,286.746918 93.908394,281.952850 102.718422,277.063232 
	C115.834503,269.783722 128.916519,262.442505 142.055740,255.205032 
	C155.367950,247.872299 168.770920,240.703842 182.061188,233.331955 
	C192.749268,227.403458 203.274734,221.181305 213.974075,215.273697 
	C221.639709,211.041122 229.524551,207.206604 237.210327,203.009079 
	C240.978653,200.951035 244.701920,201.312256 248.142883,203.086090 
	C258.677216,208.516632 269.137543,214.101990 279.484314,219.881927 
	C289.228607,225.325302 298.792175,231.092178 308.825745,237.268570 
	C309.735352,239.624512 310.693756,241.425613 310.706207,243.233200 
	C310.839996,262.661469 310.828461,282.090759 310.838104,301.519775 
	C310.838562,302.443024 310.665131,303.366333 310.558197,304.433990 
	C309.103821,304.247040 307.986328,304.103394 306.868835,303.959747 
	C306.868835,303.959747 307.067474,303.931122 306.908020,303.627808 
	C305.803406,303.254059 304.858246,303.183594 303.913086,303.113098 
	C303.913086,303.113098 303.993103,303.075012 304.198975,302.746460 
	C303.879700,302.268799 303.354523,302.119751 302.829346,301.970703 
	C290.272614,295.087463 277.705475,288.223053 265.163544,281.312897 
	C259.066620,277.953674 252.950974,274.619537 246.971603,271.059418 
	C243.622421,269.065338 240.712204,268.939545 237.232681,270.953064 
	C224.063843,278.573486 210.803696,286.040039 197.483124,293.392822 
	C189.717422,297.679352 181.772156,301.640533 173.217789,305.745880 
	C167.015930,308.840149 161.503967,311.936676 155.992004,315.033203 
z"/>
<path fill="#24292C" opacity="1.000000" stroke="none" 
	d="
M854.848572,605.045715 
	C836.945557,595.101868 819.078735,585.091980 801.128418,575.234192 
	C785.802368,566.817566 770.310364,558.702026 755.017334,550.226746 
	C732.461304,537.726318 710.023865,525.011963 687.515076,512.426025 
	C684.946777,510.989990 682.245056,509.792603 679.308105,507.816833 
	C678.436401,505.179596 677.382019,503.214447 677.363708,501.239685 
	C677.228455,486.641083 677.300171,472.040558 677.305542,457.440643 
	C677.307495,452.009918 677.305847,446.579224 677.305847,441.005371 
	C678.953186,441.005371 680.037292,441.005371 681.121399,441.005371 
	C681.121399,441.005371 680.992737,441.006348 680.926453,441.299103 
	C683.944153,443.049713 687.028198,444.507599 690.112183,445.965485 
	C690.112183,445.965485 690.008789,445.966522 689.927856,446.252197 
	C690.250549,446.695435 690.654236,446.852997 691.057922,447.010590 
	C706.218689,455.332550 721.380493,463.652527 736.539795,471.977203 
	C746.053223,477.201477 755.582214,482.397797 765.069031,487.670074 
	C775.827881,493.649261 786.524780,499.740082 797.289856,505.708008 
	C809.718445,512.598145 822.153931,519.477783 834.656372,526.232422 
	C848.272644,533.588745 862.065796,540.622009 875.601990,548.120728 
	C887.697083,554.821106 899.547180,561.963745 911.961060,569.347290 
	C913.161499,571.792175 914.553040,573.799805 914.557007,575.810242 
	C914.676392,636.431030 914.665466,697.052185 914.633484,757.673218 
	C914.632446,759.640076 914.196411,761.606750 913.963135,763.573486 
	C910.758179,765.733643 907.686401,768.131348 904.326477,770.015137 
	C883.659607,781.602966 862.907349,793.038513 842.223022,804.595398 
	C822.561768,815.580750 802.964111,826.679688 783.309082,837.676025 
	C771.633911,844.207947 759.938721,850.707031 748.142456,857.014954 
	C746.856995,857.702393 744.523865,857.604980 743.211731,856.889832 
	C726.550659,847.809448 709.987000,838.550232 693.400208,829.333679 
	C689.095093,826.941589 684.795837,824.538879 680.127197,821.605652 
	C678.824158,820.746338 677.887817,820.422424 676.951416,820.098572 
	C676.951416,820.098572 676.951721,820.040833 677.277466,819.708374 
	C677.511841,807.124878 677.393921,794.873901 677.337708,782.622681 
	C677.294556,773.218628 677.329102,763.814148 677.329102,754.032410 
	C678.952942,754.434204 680.170532,754.735474 681.388123,755.036804 
	C690.214172,759.877197 699.040222,764.717590 708.268127,770.064087 
	C714.405457,773.703857 720.140991,776.837524 725.876526,779.971191 
	C731.055603,782.507812 736.374573,784.801697 741.360352,787.673767 
	C744.271973,789.350952 746.859924,789.584656 749.616943,788.045654 
	C757.910156,783.416443 766.136047,778.666992 774.419373,774.019836 
	C776.987427,772.579163 779.655090,771.315857 782.959106,769.843933 
	C785.440369,768.439209 787.239746,767.161804 789.039062,765.884399 
	C789.039062,765.884399 789.026733,766.016235 789.326416,766.110168 
	C791.083862,765.094910 792.541565,763.985779 793.999268,762.876587 
	C793.999268,762.876587 793.989319,762.979797 794.266052,763.167114 
	C796.641174,762.359497 798.739624,761.364441 800.838013,760.369507 
	C803.777161,758.368713 806.591614,756.147095 809.677307,754.406189 
	C821.894531,747.513489 834.196655,740.771606 846.467102,733.973389 
	C848.720520,732.724854 850.972656,731.474060 853.993164,730.095825 
	C855.171265,729.121094 855.581482,728.274780 855.991699,727.428406 
	C855.991699,727.428406 855.863464,727.266113 856.287231,726.949890 
	C856.829346,725.650696 857.051208,724.667664 857.051025,723.684692 
	C857.042786,685.800598 857.025085,647.916504 856.944153,610.032532 
	C856.941284,608.668152 856.289368,607.305237 855.939941,605.941650 
	C855.939941,605.941650 856.035645,605.980286 856.076660,605.797974 
	C855.694702,605.425659 855.271606,605.235718 854.848572,605.045715 
z"/>
<path fill="#24292C" opacity="1.000000" stroke="none" 
	d="
M855.724243,329.065613 
	C836.115417,318.055115 816.559021,306.949738 796.881104,296.064148 
	C781.129150,287.350403 765.272095,278.822449 749.333923,270.455536 
	C747.606323,269.548584 744.579102,269.433899 742.914612,270.343018 
	C718.623169,283.610504 694.421143,297.043518 670.279663,310.583038 
	C646.298340,324.032715 622.423828,337.672638 598.469666,351.171021 
	C591.844177,354.904541 585.096924,358.421692 578.415100,362.055756 
	C574.004761,364.454437 569.859009,363.541840 565.756836,361.201202 
	C554.822449,354.962097 543.874023,348.747681 532.915527,342.551086 
	C527.618958,339.556091 522.263367,336.665039 516.987915,333.634033 
	C515.600098,332.836700 514.411133,331.693207 512.262024,330.040649 
	C517.036682,327.116119 521.076782,324.427826 525.309631,322.088226 
	C539.077637,314.478149 552.951172,307.058838 566.715637,299.442474 
	C576.242249,294.171051 585.584106,288.564331 595.137085,283.342529 
	C608.749756,275.901642 622.534180,268.774872 636.143738,261.328491 
	C647.607422,255.056259 658.884644,248.444092 670.322510,242.123703 
	C679.606934,236.993317 689.055481,232.160049 698.339172,227.028397 
	C704.559937,223.589767 710.566711,219.765488 716.764343,216.282974 
	C725.398743,211.431168 733.990417,206.463776 742.903320,202.175507 
	C745.032776,201.150940 748.668396,201.949249 751.078491,203.062607 
	C758.079529,206.296844 764.822449,210.093506 771.630981,213.736130 
	C772.466370,214.183060 773.085205,215.034744 774.301636,216.163818 
	C778.570496,218.416534 782.342102,220.204330 786.113708,221.992111 
	C786.113708,221.992111 785.980103,222.008530 785.996460,222.318298 
	C787.863159,223.426086 789.713562,224.224091 791.563965,225.022079 
	C791.563965,225.022079 791.695496,224.852890 791.695312,225.265533 
	C792.136353,225.798462 792.577576,225.918762 793.018860,226.039062 
	C802.973022,231.426041 812.946228,236.778198 822.877197,242.207611 
	C840.820435,252.017578 858.759827,261.835083 876.659851,271.723663 
	C889.214355,278.659180 901.700806,285.717896 914.346558,293.270203 
	C914.556274,294.979034 914.707764,296.139191 914.707703,297.299377 
	C914.706299,359.079315 914.697998,420.859253 914.650452,482.639160 
	C914.649109,484.440613 914.219543,486.241760 913.989624,488.043030 
	C911.069946,490.081787 908.299683,492.388641 905.205139,494.113800 
	C890.072388,502.550079 874.876282,510.874420 859.616394,519.077942 
	C858.504761,519.675537 856.448853,519.480591 855.270203,518.843506 
	C839.917847,510.545044 824.644836,502.099945 809.082703,493.067322 
	C805.837524,490.967590 802.861389,489.492249 799.885315,488.016907 
	C799.885315,488.016907 800.010864,488.009186 800.024597,487.703125 
	C800.288025,486.298035 800.172119,484.778931 800.858459,484.181396 
	C802.668823,482.605286 804.827393,481.429138 806.847351,480.093811 
	C812.457825,476.963196 818.072510,473.840088 823.677795,470.700348 
	C834.003113,464.916718 844.322876,459.123352 855.297180,453.063660 
	C856.334656,451.629822 857.054749,450.466919 857.056641,449.302826 
	C857.121277,410.164032 857.127258,371.025024 857.065186,331.886230 
	C857.063660,330.945312 856.190735,330.005768 855.724243,329.065613 
z"/>
<path fill="#24282B" opacity="1.000000" stroke="none" 
	d="
M73.028076,571.644592 
	C76.414520,569.014587 79.528458,565.890808 83.236885,563.844238 
	C95.945763,556.830322 108.865364,550.198364 121.699356,543.410889 
	C124.319817,542.024963 126.844559,540.422363 129.564667,539.279785 
	C130.534866,538.872253 132.112442,539.222229 133.141205,539.752930 
	C140.569092,543.584534 147.985550,547.446472 155.291107,551.504883 
	C162.484100,555.500793 169.537415,559.747803 176.661438,563.868347 
	C181.156799,566.468506 185.669449,569.038757 190.174347,571.622375 
	C190.312286,572.199890 190.450226,572.777466 190.588165,573.354980 
	C171.391388,583.911499 152.194595,594.467957 132.206512,605.113647 
	C131.208282,606.323303 130.820328,607.443970 130.820679,608.564453 
	C130.832520,646.772888 130.869812,684.981323 130.972382,723.189575 
	C130.975937,724.511353 131.685028,725.831360 132.065262,727.152161 
	C132.065262,727.152161 132.146835,727.318298 131.951385,727.872986 
	C132.338730,728.622620 132.921524,728.817627 133.504303,729.012573 
	C145.713730,735.790771 157.938522,742.541504 170.128006,749.355347 
	C181.061249,755.466919 191.972412,761.618530 202.862137,767.807251 
	C212.393982,773.224365 221.898376,778.690308 231.381790,784.191711 
	C234.761230,786.152100 237.985336,788.387207 241.415283,790.248230 
	C242.168350,790.656738 243.662750,790.298950 244.533264,789.800598 
	C256.367676,783.024902 268.074158,776.022766 279.970917,769.359802 
	C292.262848,762.475403 304.737976,755.918701 317.114044,749.183777 
	C330.168091,742.079956 343.207245,734.948669 356.239410,727.804810 
	C374.931274,717.558472 393.667786,707.391113 412.257233,696.961914 
	C417.135895,694.224731 420.641907,697.174988 424.227905,699.079285 
	C436.334930,705.508301 448.266357,712.269470 460.233032,718.960632 
	C465.518799,721.916260 470.728119,725.008667 476.900574,729.866821 
	C475.836243,730.301636 474.716156,730.635315 473.715759,731.186279 
	C450.199249,744.138611 426.679749,757.085876 403.196381,770.098267 
	C392.065277,776.266235 381.059875,782.662109 369.900970,788.778503 
	C360.224213,794.082520 350.337341,799.004028 340.674683,804.332825 
	C323.833771,813.620178 307.131866,823.159546 290.289032,832.443359 
	C285.107819,835.299194 279.551514,837.472656 274.358185,840.308838 
	C268.579285,843.464783 263.068420,847.107605 257.346771,850.373535 
	C253.021576,852.842224 248.622238,855.214111 244.093231,857.270996 
	C242.843170,857.838623 240.734726,857.617615 239.488083,856.921021 
	C227.069443,849.981812 214.790039,842.793884 202.389923,835.820923 
	C187.676834,827.547241 172.863113,819.452759 158.130661,811.213318 
	C140.983383,801.623352 123.905510,791.909058 106.739319,782.353271 
	C99.228210,778.172180 91.572075,774.251648 83.983147,770.210266 
	C80.824272,768.527954 77.668922,766.838989 74.321304,764.595276 
	C73.914764,761.568420 73.513779,759.099548 73.510475,756.630188 
	C73.450714,711.908142 73.471405,667.185974 73.400131,622.463928 
	C73.373131,605.524048 73.157646,588.584351 73.028076,571.644592 
z"/>
<path fill="#23272B" opacity="1.000000" stroke="none" 
	d="
M383.149506,381.859619 
	C369.706818,389.185913 356.254791,396.495117 342.828644,403.851624 
	C339.825287,405.497284 336.912659,407.308655 333.163452,408.910461 
	C328.434204,409.212372 330.258881,406.106079 330.256927,404.782928 
	C330.132080,320.841309 330.121704,236.899490 330.100952,152.957703 
	C335.599426,149.917831 341.122711,146.921860 346.591095,143.828812 
	C357.509583,137.653122 368.323547,131.288727 379.317078,125.250656 
	C393.904663,117.238640 408.629364,109.476471 423.283112,101.584648 
	C442.607971,91.177139 461.934845,80.773201 481.228882,70.308716 
	C485.541473,67.969704 489.721130,65.385628 493.970215,62.909611 
	C508.451111,70.659119 522.937866,78.215378 537.237854,86.109924 
	C559.311035,98.295776 581.216309,110.785606 603.277344,122.993835 
	C611.186584,127.370712 619.470154,131.074615 627.350220,135.500031 
	C637.162659,141.010696 646.734253,146.950134 656.664429,153.328476 
	C656.970154,179.648331 657.021362,205.344147 657.072571,231.039948 
	C657.072571,231.039948 657.046875,231.050095 656.691895,230.901337 
	C655.486694,231.536560 654.636414,232.320526 653.786072,233.104462 
	C637.151733,242.420456 620.517395,251.736450 603.056946,260.969666 
	C601.605164,259.332214 600.444275,257.780823 600.434692,256.222351 
	C600.304993,235.178558 600.386902,214.133408 600.229065,193.089996 
	C600.216248,191.394104 598.828796,189.708527 598.080200,188.018143 
	C585.759766,181.302032 573.451477,174.563461 561.115601,167.875854 
	C547.468872,160.477615 533.767151,153.180405 520.147827,145.732254 
	C512.908691,141.773270 505.962280,137.232208 498.528564,133.701660 
	C495.994537,132.498169 491.806641,132.499451 489.347290,133.795853 
	C476.031189,140.815125 463.054047,148.474060 449.893524,155.792831 
	C438.604706,162.070694 427.248566,168.228638 415.880554,174.362427 
	C406.903442,179.206146 397.863068,183.932556 388.189453,189.089355 
	C387.368042,191.776321 387.069519,194.084900 387.068085,196.393692 
	C387.032654,253.555771 387.003937,310.717896 387.061584,367.879913 
	C387.066742,372.987061 387.487762,378.043518 383.149506,381.859619 
z"/>
<path fill="#23282B" opacity="1.000000" stroke="none" 
	d="
M587.637146,940.571777 
	C579.693604,945.323486 571.818359,950.194336 563.791443,954.800842 
	C549.424438,963.045898 534.981689,971.159668 520.539368,979.272766 
	C512.901184,983.563416 505.339172,988.037720 497.431396,991.769287 
	C495.230835,992.807678 491.432159,992.364197 489.192627,991.117249 
	C469.224701,979.998230 449.507996,968.429199 429.584900,957.228149 
	C412.003754,947.343933 394.196045,937.863098 376.594727,928.014099 
	C361.490112,919.562256 346.535980,910.841431 331.134888,901.677490 
	C330.554077,898.997131 330.187256,896.879578 330.179016,894.760620 
	C330.093353,872.802917 330.065491,850.844910 330.021545,828.887024 
	C334.726776,826.024231 339.340149,822.995544 344.154724,820.330261 
	C357.543976,812.918213 371.013031,805.650208 384.469849,798.360962 
	C385.009277,798.068848 385.745758,798.140564 386.750397,798.553040 
	C387.138702,819.440125 387.146240,839.817017 387.229004,860.193604 
	C387.236847,862.127747 387.715851,864.059998 387.976105,865.993103 
	C394.891449,869.673767 401.856934,873.263855 408.709198,877.058472 
	C416.787781,881.532166 424.764587,886.189514 432.792267,890.755432 
	C445.754425,898.128052 458.696381,905.536804 471.697815,912.839600 
	C478.467377,916.641968 485.284149,920.374146 492.229034,923.838440 
	C493.572021,924.508362 495.908691,924.346558 497.272644,923.612610 
	C503.088531,920.483032 508.663269,916.909668 514.416138,913.657654 
	C522.582275,909.041626 530.833496,904.576416 539.037231,900.026489 
	C546.198547,896.054688 553.331970,892.032776 560.499756,888.072815 
	C570.316040,882.649719 580.163025,877.281982 589.974670,871.850342 
	C592.437012,870.487183 594.814758,868.971069 598.024963,867.489624 
	C599.346558,865.500671 600.332581,863.547913 600.335693,861.593628 
	C600.415039,812.017883 600.416382,762.442078 600.365540,712.866211 
	C600.354614,702.256165 600.088562,691.646362 599.940063,681.036438 
	C617.337463,671.392212 634.724976,661.730042 652.153564,652.142456 
	C653.376526,651.469727 654.903137,651.348877 656.635376,651.482117 
	C656.990112,733.086426 656.991333,814.180054 657.046875,895.273621 
	C657.048218,897.177063 657.660706,899.080139 657.988037,900.983398 
	C652.939331,904.265930 648.012695,907.758484 642.814270,910.783875 
	C634.145020,915.829102 625.316040,920.601440 616.515747,925.418274 
	C615.239868,926.116638 613.750977,926.425842 612.060120,926.925903 
	C611.759583,926.936584 611.878174,927.288574 611.878174,927.288574 
	C611.878174,927.288574 611.608276,927.484009 611.608276,927.484009 
	C611.322205,927.611694 611.036072,927.739380 610.010742,928.109314 
	C608.496033,928.940857 607.720581,929.530151 606.945129,930.119385 
	C606.945129,930.119446 606.951782,929.976196 606.649353,929.920166 
	C601.218750,932.931458 596.090576,935.998840 590.962402,939.066162 
	C590.962402,939.066162 590.937988,938.946045 590.870056,939.208923 
	C589.747131,939.838440 588.692139,940.205078 587.637146,940.571777 
z"/>
<path fill="#24282B" opacity="1.000000" stroke="none" 
	d="
M417.364624,383.035278 
	C417.364624,383.035278 417.665466,382.888824 417.808228,383.295959 
	C420.336609,384.801056 422.722290,385.899048 425.107971,386.997040 
	C425.107971,386.997040 424.981628,387.006989 424.968506,387.296295 
	C427.700958,389.067963 430.446503,390.550323 433.192047,392.032715 
	C435.279541,392.972382 437.440735,393.777740 439.441467,394.875519 
	C447.181946,399.122742 454.865967,403.472778 462.582367,407.764069 
	C465.612061,409.448914 468.691467,411.044861 471.709442,412.750031 
	C473.209473,413.597534 474.621735,414.600342 477.139221,416.217285 
	C470.340912,420.129303 464.587952,423.571167 458.715576,426.795532 
	C436.628784,438.922729 414.478577,450.934509 392.397919,463.072784 
	C362.984161,479.242279 333.617859,495.498016 304.218506,511.693756 
	C300.018738,514.007385 295.871521,516.492493 291.457275,518.308167 
	C289.300659,519.195251 286.097717,519.679199 284.204224,518.710999 
	C273.515442,513.245422 263.082947,507.278992 252.557861,501.492828 
	C245.180893,497.437317 237.781097,493.423065 230.420227,489.338593 
	C226.986664,487.433350 226.944626,485.696808 230.407471,483.761139 
	C235.748276,480.775726 241.236206,478.053802 246.582184,475.077240 
	C261.421753,466.814850 276.154724,458.358887 291.054443,450.207275 
	C304.517151,442.841797 318.230560,435.933533 331.670410,428.527802 
	C341.455719,423.135803 350.896973,417.122131 360.639435,411.648712 
	C368.099579,407.457520 375.869110,403.819153 383.359039,399.678131 
	C392.353149,394.705475 401.188690,389.446411 410.121033,384.360809 
	C410.800537,383.973907 411.703827,383.979980 412.760468,383.520844 
	C413.383698,383.164032 413.749573,383.089783 414.115417,383.015503 
	C414.115417,383.015503 414.018890,383.108276 414.397034,383.136230 
	C415.638306,383.121216 416.501465,383.078247 417.364624,383.035278 
z"/>
<path fill="#25292C" opacity="1.000000" stroke="none" 
	d="
M754.145691,577.734802 
	C740.923767,585.235962 727.983948,592.574829 714.978333,599.795227 
	C687.186951,615.224182 659.402161,630.665833 631.529541,645.947083 
	C620.682556,651.893860 609.530273,657.282654 598.661865,663.192139 
	C591.985718,666.822021 585.506165,670.834106 579.087769,674.909912 
	C575.135376,677.419861 571.760498,677.263977 567.664551,674.886658 
	C552.707520,666.205322 537.546448,657.875488 522.461548,649.414551 
	C519.597351,647.807922 516.729919,646.207153 513.157410,644.208374 
	C514.438965,642.846252 515.265991,641.432922 516.498047,640.742249 
	C526.312439,635.240173 536.203796,629.875244 546.071472,624.468262 
	C557.360229,618.282654 568.665833,612.127563 579.933594,605.904053 
	C595.057251,597.550964 610.144897,589.132812 625.260681,580.765442 
	C638.577026,573.394226 651.926025,566.081909 665.231934,558.691895 
	C675.612976,552.926392 685.918640,547.024414 696.321594,541.299011 
	C700.715637,538.880859 704.873108,540.041016 709.078003,542.362122 
	C721.155029,549.028687 733.403015,555.385864 745.466858,562.075562 
	C750.747742,565.003967 755.744202,568.445312 761.924622,572.314026 
	C759.245239,574.166809 756.821594,575.842773 754.145691,577.734802 
z"/>
<path fill="#24282B" opacity="1.000000" stroke="none" 
	d="
M600.035034,367.985168 
	C609.305969,362.642639 618.516052,357.190826 627.865540,351.989502 
	C636.462524,347.206818 645.209534,342.693726 654.548096,337.967773 
	C655.481873,337.576202 655.758057,337.278748 656.034241,336.981262 
	C656.034241,336.981262 656.518494,336.933441 656.706604,337.434753 
	C656.910217,339.764893 656.938232,341.593719 656.939331,343.422546 
	C656.979614,410.598602 657.017395,477.774628 657.055603,544.950684 
	C651.115906,548.519409 645.259338,552.236450 639.218140,555.624084 
	C628.686096,561.530029 618.070312,567.289490 607.416199,572.972717 
	C605.322388,574.089600 602.896301,574.583435 600.518860,574.755432 
	C600.391113,524.718140 600.393738,475.290039 600.331787,425.862030 
	C600.307617,406.569641 600.138245,387.277435 600.035034,367.985168 
z"/>
<path fill="#23272B" opacity="1.000000" stroke="none" 
	d="
M336.478516,721.069519 
	C336.478516,721.069519 336.512665,720.987305 336.091187,720.670837 
	C335.347656,720.934448 335.025574,721.514526 334.703522,722.094604 
	C334.703522,722.094604 334.599945,722.122742 334.221985,721.732300 
	C332.792664,721.573547 331.741272,721.805237 330.196594,722.145630 
	C330.196594,720.311401 330.197479,719.014954 330.196472,717.718567 
	C330.173767,688.927124 330.162903,660.135620 330.125061,631.344177 
	C330.074097,592.574646 330.002350,553.805115 329.939484,515.035583 
	C348.022186,505.133148 366.104889,495.230713 384.843445,485.364441 
	C386.023621,487.321747 387.003571,489.242279 387.006348,491.164215 
	C387.098267,555.238953 387.059448,619.313843 387.191895,683.388428 
	C387.200836,687.728577 386.804382,691.450378 382.978943,694.059631 
	C382.978943,694.059631 382.992065,693.988831 382.687256,693.985474 
	C381.311798,694.935486 380.241119,695.888855 379.170471,696.842163 
	C365.654907,704.372437 352.139313,711.902649 337.865265,719.464600 
	C336.897369,720.020691 336.687927,720.545105 336.478516,721.069519 
z"/>
<path fill="#24282B" opacity="1.000000" stroke="none" 
	d="
M410.181854,293.018494 
	C421.004547,298.929688 431.832703,304.830963 442.648407,310.755005 
	C452.903839,316.372162 463.138641,322.027100 473.396973,327.639038 
	C480.482239,331.515076 487.623810,335.289215 494.682709,339.212280 
	C503.030762,343.851715 511.250183,348.725586 519.646729,353.273773 
	C530.226379,359.004517 541.023499,364.337677 551.549377,370.162903 
	C560.463257,375.096039 569.124695,380.485321 578.179565,385.744324 
	C578.774719,386.126373 579.088196,386.436859 579.401611,386.747345 
	C579.668030,386.755402 579.934509,386.763458 580.561157,387.351501 
	C581.091431,389.572052 581.410156,391.212769 581.408752,392.853180 
	C581.393433,410.464844 581.349976,428.076599 581.249878,445.687958 
	C581.235901,448.144836 580.875122,450.599731 580.674866,453.055542 
	C580.436279,453.003784 580.197632,452.952026 579.703979,452.679657 
	C579.448914,452.459045 579.676270,452.489655 579.676270,452.489655 
	C577.524597,451.878662 575.178894,451.631012 573.250977,450.601135 
	C550.667969,438.537720 528.073608,426.491577 505.636719,414.159882 
	C490.472992,405.825653 475.595825,396.971680 460.509979,388.493469 
	C451.867493,383.636444 443.020325,379.144806 434.345703,374.343414 
	C426.265198,369.870819 418.291199,365.205933 409.882996,360.015137 
	C408.644196,359.298065 407.792694,359.191528 406.941162,359.084991 
	C406.941162,359.084991 406.982086,359.000000 407.142029,358.595764 
	C407.213226,337.467865 407.175110,316.743774 406.972076,296.021240 
	C406.946442,293.403046 408.137115,292.975403 410.181854,293.018494 
z"/>
<path fill="#24282B" opacity="1.000000" stroke="none" 
	d="
M580.044067,766.981201 
	C574.690002,764.191528 569.279785,761.503723 563.993591,758.591003 
	C552.878784,752.466797 541.848083,746.190308 530.748352,740.038635 
	C512.496460,729.923401 494.213776,719.863831 475.950470,709.769165 
	C459.446716,700.647217 442.957245,691.499451 426.449493,682.384766 
	C420.221375,678.945923 413.959686,675.567749 407.479004,671.625000 
	C407.170013,649.844604 407.089478,628.601135 407.042694,607.357544 
	C407.040924,606.552185 407.365082,605.746094 407.537323,604.940369 
	C412.597473,607.306824 417.769714,609.462402 422.695496,612.081482 
	C434.786224,618.510132 446.779572,625.122803 458.779175,631.721313 
	C464.486633,634.859802 470.107666,638.155029 475.788361,641.342712 
	C483.815094,645.846924 491.853851,650.329956 499.900604,654.798340 
	C506.976440,658.727600 514.076782,662.612671 521.154907,666.537903 
	C531.514954,672.283081 541.904724,677.976440 552.205444,683.826416 
	C559.481873,687.958984 566.631775,692.314453 574.260376,697.077148 
	C580.218140,699.197083 581.413025,702.923340 581.294800,708.459229 
	C580.915405,726.236450 581.182495,744.026917 581.102905,761.811829 
	C581.095154,763.536499 580.413086,765.258179 580.044067,766.981201 
z"/>
<path fill="#C2C3BF" opacity="1.000000" stroke="none" 
	d="
M73.644394,295.741455 
	C73.718666,301.921295 73.452507,308.395172 73.452560,314.869049 
	C73.453018,370.776764 73.499420,426.684509 73.546463,482.592224 
	C73.547714,484.082458 73.710915,485.572601 73.897827,487.522644 
	C73.338760,486.343628 72.108215,484.705841 72.104996,483.065674 
	C71.994125,426.549835 71.957291,370.033752 72.050957,313.517883 
	C72.060616,307.689667 72.947533,301.862915 73.644394,295.741455 
z"/>
<path fill="#C2C3BF" opacity="1.000000" stroke="none" 
	d="
M72.632858,571.879395 
	C73.157646,588.584351 73.373131,605.524048 73.400131,622.463928 
	C73.471405,667.185974 73.450714,711.908142 73.510475,756.630188 
	C73.513779,759.099548 73.914764,761.568420 74.032288,764.498474 
	C73.281303,763.038513 72.061218,761.118469 72.058334,759.196533 
	C71.965378,697.322449 71.989395,635.448303 72.006828,573.574097 
	C72.006966,573.087463 72.157387,572.600891 72.632858,571.879395 
z"/>
<path fill="#DBDCD9" opacity="1.000000" stroke="none" 
	d="
M329.666077,153.081421 
	C330.121704,236.899490 330.132080,320.841309 330.256927,404.782928 
	C330.258881,406.106079 328.434204,409.212372 332.812500,408.873657 
	C331.998627,409.300262 330.740906,409.630310 329.007782,410.085144 
	C329.007782,401.032684 329.007538,392.555725 329.007843,384.078766 
	C329.010498,308.610260 329.011993,233.141769 329.024902,157.673264 
	C329.025146,156.183868 329.159424,154.694519 329.666077,153.081421 
z"/>
<path fill="#6F7070" opacity="1.000000" stroke="none" 
	d="
M657.979370,900.515869 
	C657.660706,899.080139 657.048218,897.177063 657.046875,895.273621 
	C656.991333,814.180054 656.990112,733.086426 657.028564,651.531006 
	C657.384888,653.109558 657.965271,655.149902 657.966125,657.190430 
	C658.000366,738.143066 657.982056,819.095703 657.979370,900.515869 
z"/>
<path fill="#6F7070" opacity="1.000000" stroke="none" 
	d="
M383.396667,694.043823 
	C386.804382,691.450378 387.200836,687.728577 387.191895,683.388428 
	C387.059448,619.313843 387.098267,555.238953 387.006348,491.164215 
	C387.003571,489.242279 386.023621,487.321747 385.136353,485.202850 
	C385.809875,485.190002 387.169098,485.050415 387.782501,485.660583 
	C388.288940,486.164337 387.926605,487.554871 387.926605,488.552460 
	C387.928101,555.731567 387.896729,622.910767 388.014282,690.089600 
	C388.020325,693.551514 386.224457,693.800537 383.396667,694.043823 
z"/>
<path fill="#DBDCD9" opacity="1.000000" stroke="none" 
	d="
M329.546509,515.223877 
	C330.002350,553.805115 330.074097,592.574646 330.125061,631.344177 
	C330.162903,660.135620 330.173767,688.927124 330.196472,717.718567 
	C330.197479,719.014954 330.196594,720.311401 330.196594,722.145630 
	C331.741272,721.805237 332.792664,721.573547 334.206726,721.680847 
	C332.894714,722.380493 331.220032,722.741089 329.273773,723.160217 
	C329.164429,721.647461 329.011017,720.515076 329.010925,719.382690 
	C329.006012,652.055664 329.013367,584.728638 329.025787,517.401611 
	C329.025909,516.738464 329.109100,516.075317 329.546509,515.223877 
z"/>
<path fill="#6F7070" opacity="1.000000" stroke="none" 
	d="
M657.406982,544.711182 
	C657.017395,477.774628 656.979614,410.598602 656.939331,343.422546 
	C656.938232,341.593719 656.910217,339.764893 656.947266,337.470154 
	C657.333313,338.193542 657.957947,339.382690 657.958618,340.572174 
	C657.995911,408.046051 657.981567,475.519989 657.962769,542.993896 
	C657.962585,543.486511 657.829468,543.979065 657.406982,544.711182 
z"/>
<path fill="#DBDCD9" opacity="1.000000" stroke="none" 
	d="
M599.608398,368.120728 
	C600.138245,387.277435 600.307617,406.569641 600.331787,425.862030 
	C600.393738,475.290039 600.391113,524.718140 600.244629,574.589966 
	C599.709290,573.926331 599.024414,572.819092 599.023621,571.711365 
	C598.975037,504.386230 598.982056,437.061066 598.992798,369.735870 
	C598.992859,369.242676 599.116089,368.749512 599.608398,368.120728 
z"/>
<path fill="#6F7070" opacity="1.000000" stroke="none" 
	d="
M383.477234,381.701355 
	C387.487762,378.043518 387.066742,372.987061 387.061584,367.879913 
	C387.003937,310.717896 387.032654,253.555771 387.068085,196.393692 
	C387.069519,194.084900 387.368042,191.776321 387.877228,189.214096 
	C388.131195,195.610580 387.956085,202.260559 387.953522,208.910614 
	C387.931549,265.660309 387.940918,322.410004 387.940918,379.473053 
	C386.659454,380.114441 385.232239,380.828766 383.477234,381.701355 
z"/>
<path fill="#DBDCD9" opacity="1.000000" stroke="none" 
	d="
M914.381226,763.396118 
	C914.196411,761.606750 914.632446,759.640076 914.633484,757.673218 
	C914.665466,697.052185 914.676392,636.431030 914.557007,575.810242 
	C914.553040,573.799805 913.161499,571.792175 912.304077,569.442139 
	C916.569702,568.380005 916.003845,571.431641 916.003845,574.077393 
	C916.004456,607.532959 916.013794,640.988586 916.013367,674.444153 
	C916.013062,702.406738 916.022644,730.369324 915.945496,758.331726 
	C915.940979,759.961792 915.198425,761.589844 914.381226,763.396118 
z"/>
<path fill="#DBDCD9" opacity="1.000000" stroke="none" 
	d="
M914.408813,487.941162 
	C914.219543,486.241760 914.649109,484.440613 914.650452,482.639160 
	C914.697998,420.859253 914.706299,359.079315 914.707703,297.299377 
	C914.707764,296.139191 914.556274,294.979034 914.668213,293.380005 
	C915.237854,294.203400 915.943420,295.465363 915.944519,296.727905 
	C915.998901,359.158752 915.999756,421.589661 915.944885,484.020508 
	C915.943726,485.293762 915.216492,486.566376 914.408813,487.941162 
z"/>
<path fill="#DBDCD9" opacity="1.000000" stroke="none" 
	d="
M599.581177,681.274231 
	C600.088562,691.646362 600.354614,702.256165 600.365540,712.866211 
	C600.416382,762.442078 600.415039,812.017883 600.335693,861.593628 
	C600.332581,863.547913 599.346558,865.500671 598.350098,867.507324 
	C598.250671,864.992188 598.939331,862.424133 598.941895,859.855408 
	C599.000366,801.395081 598.982605,742.934631 598.991333,684.474243 
	C598.991455,683.486816 599.141968,682.499451 599.581177,681.274231 
z"/>
<path fill="#9A9C9A" opacity="1.000000" stroke="none" 
	d="
M580.283386,767.259583 
	C580.413086,765.258179 581.095154,763.536499 581.102905,761.811829 
	C581.182495,744.026917 580.915405,726.236450 581.294800,708.459229 
	C581.413025,702.923340 580.218140,699.197083 574.395447,697.415955 
	C579.882202,696.814026 582.937683,698.593201 582.996582,704.328003 
	C583.202637,724.363220 583.140320,744.401855 583.006653,764.438049 
	C582.999756,765.476807 581.387512,766.504883 580.283386,767.259583 
z"/>
<path fill="#C2C3BF" opacity="1.000000" stroke="none" 
	d="
M680.978760,440.631409 
	C680.037292,441.005371 678.953186,441.005371 677.305847,441.005371 
	C677.305847,446.579224 677.307495,452.009918 677.305542,457.440643 
	C677.300171,472.040558 677.228455,486.641083 677.363708,501.239685 
	C677.382019,503.214447 678.436401,505.179596 679.040649,507.590851 
	C678.044800,507.103241 676.131470,506.180786 676.124268,505.243683 
	C675.956116,483.305359 675.994080,461.365387 675.994080,438.459534 
	C678.101868,439.242188 679.469055,439.749817 680.978760,440.631409 
z"/>
<path fill="#C2C3BF" opacity="1.000000" stroke="none" 
	d="
M580.912109,453.328094 
	C580.875122,450.599731 581.235901,448.144836 581.249878,445.687958 
	C581.349976,428.076599 581.393433,410.464844 581.408752,392.853180 
	C581.410156,391.212769 581.091431,389.572052 580.946289,387.459045 
	C581.652344,388.274536 582.916748,389.557861 582.927063,390.851166 
	C583.082520,410.407867 583.112427,429.966095 583.018555,449.523224 
	C583.012024,450.885315 581.800476,452.241638 580.912109,453.328094 
z"/>
<path fill="#9A9C9A" opacity="1.000000" stroke="none" 
	d="
M855.847046,329.515808 
	C856.190735,330.005768 857.063660,330.945312 857.065186,331.886230 
	C857.127258,371.025024 857.121277,410.164032 857.056641,449.302826 
	C857.054749,450.466919 856.334656,451.629822 855.540405,452.809143 
	C855.430481,451.236420 855.989380,449.648010 855.990540,448.059204 
	C856.019409,408.694824 855.989380,369.330414 855.847046,329.515808 
z"/>
<path fill="#9A9C9A" opacity="1.000000" stroke="none" 
	d="
M132.014114,452.541321 
	C131.658310,451.665253 130.932709,450.321625 130.929810,448.976471 
	C130.845200,409.872223 130.830246,370.767853 130.826447,331.663483 
	C130.826370,330.852997 131.090012,330.042542 131.663101,329.110168 
	C132.057434,370.016541 132.019302,411.044769 132.014114,452.541321 
z"/>
<path fill="#9A9C9A" opacity="1.000000" stroke="none" 
	d="
M132.029739,726.674316 
	C131.685028,725.831360 130.975937,724.511353 130.972382,723.189575 
	C130.869812,684.981323 130.832520,646.772888 130.820679,608.564453 
	C130.820328,607.443970 131.208282,606.323303 131.857086,605.081421 
	C132.201950,609.607300 132.024323,614.254456 132.020706,618.901794 
	C131.992874,654.666687 131.998779,690.431519 132.029739,726.674316 
z"/>
<path fill="#9A9C9A" opacity="1.000000" stroke="none" 
	d="
M855.997986,606.411499 
	C856.289368,607.305237 856.941284,608.668152 856.944153,610.032532 
	C857.025085,647.916504 857.042786,685.800598 857.051025,723.684692 
	C857.051208,724.667664 856.829346,725.650696 856.336548,726.858948 
	C855.993408,687.016602 856.024719,646.949036 855.997986,606.411499 
z"/>
<path fill="#DBDCD9" opacity="1.000000" stroke="none" 
	d="
M598.337646,188.352966 
	C598.828796,189.708527 600.216248,191.394104 600.229065,193.089996 
	C600.386902,214.133408 600.304993,235.178558 600.434692,256.222351 
	C600.444275,257.780823 601.605164,259.332214 602.705078,260.929749 
	C601.894348,261.348328 600.609314,261.723999 598.983521,262.199280 
	C598.983521,239.297440 598.993225,216.938370 598.966675,194.579330 
	C598.964355,192.615326 598.724609,190.651627 598.337646,188.352966 
z"/>
<path fill="#C2C3BF" opacity="1.000000" stroke="none" 
	d="
M681.227722,754.673340 
	C680.170532,754.735474 678.952942,754.434204 677.329102,754.032410 
	C677.329102,763.814148 677.294556,773.218628 677.337708,782.622681 
	C677.393921,794.873901 677.511841,807.124878 677.270874,819.741455 
	C676.627014,819.102112 676.046265,818.097900 676.043762,817.092285 
	C675.992432,796.812012 675.981201,776.531433 676.077393,756.251404 
	C676.082947,755.085022 676.810974,753.312927 677.681396,752.940002 
	C678.469727,752.602295 679.912903,753.793030 681.227722,754.673340 
z"/>
<path fill="#DBDCD9" opacity="1.000000" stroke="none" 
	d="
M307.051086,304.325867 
	C307.986328,304.103394 309.103821,304.247040 310.558197,304.433990 
	C310.665131,303.366333 310.838562,302.443024 310.838104,301.519775 
	C310.828461,282.090759 310.839996,262.661469 310.706207,243.233200 
	C310.693756,241.425613 309.735352,239.624512 309.144775,237.429016 
	C312.510498,236.916626 311.977173,239.409637 311.978088,241.500854 
	C311.987701,262.802490 311.983978,284.104126 311.983978,306.368225 
	C310.158020,305.723969 308.695679,305.208008 307.051086,304.325867 
z"/>
<path fill="#6F7070" opacity="1.000000" stroke="none" 
	d="
M657.468506,230.849121 
	C657.021362,205.344147 656.970154,179.648331 656.971680,153.488068 
	C657.353394,154.046204 657.969116,155.068726 657.969360,156.091370 
	C657.974182,180.946991 657.913452,205.802643 657.468506,230.849121 
z"/>
<path fill="#DBDCD9" opacity="1.000000" stroke="none" 
	d="
M329.627747,829.094666 
	C330.065491,850.844910 330.093353,872.802917 330.179016,894.760620 
	C330.187256,896.879578 330.554077,898.997131 330.813721,901.523682 
	C330.250153,901.291382 329.083557,900.651123 329.083099,900.010071 
	C329.066193,876.440857 329.157471,852.871582 329.627747,829.094666 
z"/>
<path fill="#DBDCD9" opacity="1.000000" stroke="none" 
	d="
M310.551971,618.945068 
	C310.357971,617.499756 310.800385,616.067383 310.803375,614.634094 
	C310.844269,595.085754 310.842499,575.537231 310.781525,555.988953 
	C310.777100,554.566650 310.233765,553.146118 309.946167,551.292114 
	C310.634521,551.672729 311.910522,552.483215 311.914276,553.299683 
	C312.012756,574.713196 311.985748,596.127319 311.927643,617.541260 
	C311.926361,618.014282 311.312317,618.485535 310.551971,618.945068 
z"/>
<path fill="#9A9C9A" opacity="1.000000" stroke="none" 
	d="
M409.959412,292.658905 
	C408.137115,292.975403 406.946442,293.403046 406.972076,296.021240 
	C407.175110,316.743774 407.213226,337.467865 407.127014,358.638611 
	C406.637665,358.256165 406.050781,357.427185 406.048798,356.596863 
	C405.998352,335.326935 406.009003,314.056824 406.009003,292.299347 
	C407.332855,292.299347 408.534912,292.299347 409.959412,292.658905 
z"/>
<path fill="#6F7070" opacity="1.000000" stroke="none" 
	d="
M387.931152,865.526733 
	C387.715851,864.059998 387.236847,862.127747 387.229004,860.193604 
	C387.146240,839.817017 387.138702,819.440125 387.130005,798.605469 
	C387.403656,799.891724 387.874908,801.635559 387.878540,803.380249 
	C387.921631,823.940186 387.894653,844.500366 387.931152,865.526733 
z"/>
<path fill="#9A9C9A" opacity="1.000000" stroke="none" 
	d="
M407.088867,605.060913 
	C407.365082,605.746094 407.040924,606.552185 407.042694,607.357544 
	C407.089478,628.601135 407.170013,649.844604 407.130554,671.545776 
	C406.673767,671.199585 406.033630,670.396423 406.031982,669.591980 
	C405.989838,649.062500 406.006439,628.533020 406.053406,608.003540 
	C406.055573,607.062378 406.436066,606.122131 407.088867,605.060913 
z"/>
<path fill="#C2C3BF" opacity="1.000000" stroke="none" 
	d="
M725.920898,779.588928 
	C720.140991,776.837524 714.405457,773.703857 708.391724,770.416260 
	C715.440918,770.495789 720.333191,775.589539 725.920898,779.588928 
z"/>
<path fill="#C2C3BF" opacity="1.000000" stroke="none" 
	d="
M591.348389,939.012207 
	C596.090576,935.998840 601.218750,932.931458 606.721069,929.922363 
	C606.972717,930.596863 607.042603,931.600342 606.698853,931.771118 
	C601.743347,934.232605 596.732178,936.581909 591.348389,939.012207 
z"/>
<path fill="#C2C3BF" opacity="1.000000" stroke="none" 
	d="
M156.389954,314.989136 
	C161.503967,311.936676 167.015930,308.840149 172.905273,305.860229 
	C167.784378,308.966248 162.286133,311.955627 156.389954,314.989136 
z"/>
<path fill="#C2C3BF" opacity="1.000000" stroke="none" 
	d="
M785.993530,221.647141 
	C782.342102,220.204330 778.570496,218.416534 774.575195,216.419708 
	C778.192078,217.907822 782.032715,219.604996 785.993530,221.647141 
z"/>
<path fill="#C2C3BF" opacity="1.000000" stroke="none" 
	d="
M806.474182,480.094238 
	C804.827393,481.429138 802.668823,482.605286 800.858459,484.181396 
	C800.172119,484.778931 800.288025,486.298035 800.028687,487.765930 
	C799.406738,487.376831 798.128113,486.354309 798.304749,485.909698 
	C798.878540,484.464661 799.728699,482.862488 800.952698,482.011658 
	C802.409180,480.999176 804.362793,480.701843 806.474182,480.094238 
z"/>
<path fill="#C2C3BF" opacity="1.000000" stroke="none" 
	d="
M690.024658,445.612518 
	C687.028198,444.507599 683.944153,443.049713 680.925781,441.234772 
	C683.973267,442.338318 686.955139,443.798950 690.024658,445.612518 
z"/>
<path fill="#C2C3BF" opacity="1.000000" stroke="none" 
	d="
M799.969849,488.372223 
	C802.861389,489.492249 805.837524,490.967590 808.915222,492.767700 
	C806.029358,491.637482 803.041931,490.182526 799.969849,488.372223 
z"/>
<path fill="#C2C3BF" opacity="1.000000" stroke="none" 
	d="
M433.102417,391.658234 
	C430.446503,390.550323 427.700958,389.067963 424.963135,387.233154 
	C427.651520,388.348389 430.332123,389.816071 433.102417,391.658234 
z"/>
<path fill="#C2C3BF" opacity="1.000000" stroke="none" 
	d="
M424.984253,386.655029 
	C422.722290,385.899048 420.336609,384.801056 417.966858,383.349121 
	C420.275330,384.101166 422.567963,385.207092 424.984253,386.655029 
z"/>
<path fill="#C2C3BF" opacity="1.000000" stroke="none" 
	d="
M800.453125,760.319458 
	C798.739624,761.364441 796.641174,762.359497 794.214478,763.161621 
	C795.946899,762.069031 798.007568,761.169250 800.453125,760.319458 
z"/>
<path fill="#C2C3BF" opacity="1.000000" stroke="none" 
	d="
M788.666260,765.973267 
	C787.239746,767.161804 785.440369,768.439209 783.324707,769.857056 
	C782.797424,766.036682 786.510620,767.345520 788.666260,765.973267 
z"/>
<path fill="#C2C3BF" opacity="1.000000" stroke="none" 
	d="
M791.324341,224.694382 
	C789.713562,224.224091 787.863159,223.426086 785.987793,222.251556 
	C787.670105,222.705597 789.377441,223.536133 791.324341,224.694382 
z"/>
<path fill="#C2C3BF" opacity="1.000000" stroke="none" 
	d="
M793.629761,762.907410 
	C792.541565,763.985779 791.083862,765.094910 789.260437,766.104614 
	C790.349915,764.982849 791.805054,763.960510 793.629761,762.907410 
z"/>
<path fill="#C2C3BF" opacity="1.000000" stroke="none" 
	d="
M587.421021,940.397461 
	C588.692139,940.205078 589.747131,939.838440 590.929749,939.194946 
	C589.773193,939.353210 588.489014,939.788208 587.421021,940.397461 
z"/>
<path fill="#6F7070" opacity="1.000000" stroke="none" 
	d="
M379.456909,696.720886 
	C380.241119,695.888855 381.311798,694.935486 382.722717,693.991760 
	C381.956390,694.867432 380.849854,695.733521 379.456909,696.720886 
z"/>
<path fill="#6F7070" opacity="1.000000" stroke="none" 
	d="
M654.151001,233.130493 
	C654.636414,232.320526 655.486694,231.536560 656.692017,230.915161 
	C656.203369,231.770660 655.359680,232.463577 654.151001,233.130493 
z"/>
<path fill="#C2C3BF" opacity="1.000000" stroke="none" 
	d="
M607.262207,930.029175 
	C607.720581,929.530151 608.496033,928.940857 609.549316,928.197937 
	C609.077820,928.675842 608.328491,929.307373 607.262207,930.029175 
z"/>
<path fill="#C2C3BF" opacity="1.000000" stroke="none" 
	d="
M677.044189,820.383362 
	C677.887817,820.422424 678.824158,820.746338 679.785034,821.470337 
	C678.918701,821.469666 678.027893,821.068909 677.044189,820.383362 
z"/>
<path fill="#9A9C9A" opacity="1.000000" stroke="none" 
	d="
M855.695374,727.634094 
	C855.581482,728.274780 855.171265,729.121094 854.326172,729.990845 
	C854.393860,729.289429 854.896423,728.564575 855.695374,727.634094 
z"/>
<path fill="#DBDCD9" opacity="1.000000" stroke="none" 
	d="
M309.970642,550.675110 
	C309.325226,550.835999 308.524872,550.690430 307.424286,550.405273 
	C308.021271,550.299927 308.918457,550.334290 309.970642,550.675110 
z"/>
<path fill="#DBDCD9" opacity="1.000000" stroke="none" 
	d="
M304.053711,303.454529 
	C304.858246,303.183594 305.803406,303.254059 306.924438,303.726807 
	C306.131653,304.018066 305.162964,303.907013 304.053711,303.454529 
z"/>
<path fill="#9A9C9A" opacity="1.000000" stroke="none" 
	d="
M407.047424,359.430939 
	C407.792694,359.191528 408.644196,359.298065 409.744415,359.690613 
	C409.046631,359.910034 408.100189,359.843445 407.047424,359.430939 
z"/>
<path fill="#C2C3BF" opacity="1.000000" stroke="none" 
	d="
M417.124573,382.767517 
	C416.501465,383.078247 415.638306,383.121216 414.348938,383.089661 
	C414.910004,382.843353 415.897278,382.671570 417.124573,382.767517 
z"/>
<path fill="#C2C3BF" opacity="1.000000" stroke="none" 
	d="
M579.252014,386.874512 
	C579.088196,386.436859 578.774719,386.126373 578.329041,386.096161 
	C578.498718,386.584839 578.800537,386.793243 579.252014,386.874512 
z"/>
<path fill="#9A9C9A" opacity="1.000000" stroke="none" 
	d="
M132.403168,328.987793 
	C132.132782,328.503174 132.184174,327.950806 132.557297,327.218719 
	C132.827667,327.666046 132.776306,328.293030 132.403168,328.987793 
z"/>
<path fill="#C2C3BF" opacity="1.000000" stroke="none" 
	d="
M611.424255,927.430481 
	C611.608276,927.484009 611.878174,927.288574 611.878174,927.288574 
	C611.878174,927.288574 611.759583,926.936584 611.672913,926.897339 
	C611.586243,926.858154 611.233398,926.995850 611.233398,926.995850 
	C611.233398,926.995850 611.240234,927.376953 611.424255,927.430481 
z"/>
<path fill="#9A9C9A" opacity="1.000000" stroke="none" 
	d="
M855.008240,605.252136 
	C855.271606,605.235718 855.694702,605.425659 856.058228,605.846130 
	C855.721802,605.870605 855.444824,605.664551 855.008240,605.252136 
z"/>
<path fill="#C2C3BF" opacity="1.000000" stroke="none" 
	d="
M413.959473,383.143372 
	C413.749573,383.089783 413.383698,383.164032 413.155701,383.550446 
	C413.357361,383.573822 413.527344,383.376678 413.959473,383.143372 
z"/>
<path fill="#9A9C9A" opacity="1.000000" stroke="none" 
	d="
M133.293152,728.712646 
	C132.921524,728.817627 132.338730,728.622620 131.876678,727.927612 
	C132.358948,727.755920 132.720459,728.084351 133.293152,728.712646 
z"/>
<path fill="#DBDCD9" opacity="1.000000" stroke="none" 
	d="
M335.081238,722.059448 
	C335.025574,721.514526 335.347656,720.934448 336.132416,720.687683 
	C336.216370,721.355408 335.837646,721.689880 335.081238,722.059448 
z"/>
<path fill="#6F7070" opacity="1.000000" stroke="none" 
	d="
M655.726807,337.043396 
	C655.758057,337.278748 655.481873,337.576202 654.885254,337.946991 
	C654.849670,337.715393 655.134583,337.410461 655.726807,337.043396 
z"/>
<path fill="#DBDCD9" opacity="1.000000" stroke="none" 
	d="
M336.881927,721.044312 
	C336.687927,720.545105 336.897369,720.020691 337.593353,719.637573 
	C337.815063,720.192261 337.550201,720.605713 336.881927,721.044312 
z"/>
<path fill="#C2C3BF" opacity="1.000000" stroke="none" 
	d="
M690.985352,446.741730 
	C690.654236,446.852997 690.250549,446.695435 689.927979,446.200470 
	C690.310303,446.066345 690.611572,446.269592 690.985352,446.741730 
z"/>
<path fill="#DBDCD9" opacity="1.000000" stroke="none" 
	d="
M302.903931,302.257935 
	C303.354523,302.119751 303.879700,302.268799 304.177185,302.785034 
	C303.625854,302.949829 303.302185,302.747498 302.903931,302.257935 
z"/>
<path fill="#C2C3BF" opacity="1.000000" stroke="none" 
	d="
M579.592957,452.568939 
	C579.676270,452.489655 579.448914,452.459045 579.408813,452.462708 
	C579.368774,452.466339 579.509644,452.648224 579.592957,452.568939 
z"/>
<path fill="#C2C3BF" opacity="1.000000" stroke="none" 
	d="
M792.982056,225.734756 
	C792.577576,225.918762 792.136353,225.798462 791.791016,225.313660 
	C792.239685,225.109589 792.592468,225.270020 792.982056,225.734756 
z"/>
</svg>